<svg width="793" height="794" viewBox="0 0 793 794" fill="none" xmlns="http://www.w3.org/2000/svg">
<path fill-rule="evenodd" clip-rule="evenodd" d="M396.398 0.65382C615.324 0.65382 792.795 178.104 792.795 397C792.795 615.898 615.324 793.346 396.398 793.346C177.473 793.346 0 615.898 0 397C0 178.104 177.473 0.65382 396.398 0.65382Z" fill="white"/>
<path fill-rule="evenodd" clip-rule="evenodd" d="M396.398 160.236C530.363 160.236 639.059 267.025 639.059 398.709C639.05 412.069 637.904 425.404 635.641 438.57L624.277 433.951C626.153 422.313 627.095 410.544 627.095 398.755C627.095 273.584 523.757 172.061 396.398 172.061C323.552 171.817 254.834 205.846 210.88 263.93L199.516 259.311C245.606 196.807 318.731 160.009 396.398 160.236ZM114.609 495.891L113.732 493.119C113.619 492.602 113.433 492.103 113.178 491.641C113.005 491.29 112.732 491.004 112.392 490.81C111.928 490.653 111.425 490.653 110.961 490.81C110.198 490.921 109.442 491.073 108.696 491.272L72.4339 500.509C71.6398 500.629 70.8997 500.981 70.3089 501.526C70.0696 502.071 70.0696 502.689 70.3089 503.235L71.3251 506.653L68.8768 507.299L58.3444 469.332L71.8795 466.053L72.4339 468.131L71.2789 468.639L69.7545 469.24L67.6296 470.21C66.9482 470.551 66.2987 470.953 65.6894 471.41C65.1327 471.858 64.663 472.408 64.3035 473.027C63.9349 473.688 63.6845 474.408 63.5644 475.152C63.4702 475.951 63.4702 476.754 63.5644 477.554C63.6642 478.602 63.8652 479.637 64.165 480.648L67.5372 492.703L86.8929 487.715L84.8603 480.51C84.7356 479.992 84.5813 479.484 84.3983 478.985C84.2112 478.477 83.9114 478.02 83.5206 477.646C83.0402 477.249 82.4688 476.981 81.8576 476.861C81.1078 476.741 80.3438 476.741 79.594 476.861C78.6027 476.935 77.616 477.055 76.6376 477.23L75.4365 477.461L74.836 475.336L93.3139 470.718L93.9145 472.842L92.6672 473.258C91.6366 473.618 90.6327 474.048 89.6645 474.551C88.8404 474.898 88.1341 475.475 87.632 476.214C87.3146 476.778 87.17 477.42 87.2162 478.062C87.2374 478.801 87.3617 479.53 87.5858 480.232L89.5721 487.392L106.433 483.05L109.021 482.357C109.297 482.237 109.548 482.066 109.76 481.849C110.003 481.595 110.164 481.272 110.222 480.925C110.261 480.39 110.182 479.854 109.991 479.355L107.773 471.457C107.773 470.81 107.403 470.163 107.172 469.47C106.941 468.778 106.756 468.223 106.572 467.808L105.602 466.006C104.755 464.399 103.339 463.161 101.629 462.542C100.686 462.139 99.6906 461.875 98.6725 461.757C97.3204 461.635 95.9594 461.635 94.6074 461.757H92.8519L92.2053 459.448L106.572 457.184L117.197 495.382L114.517 496.075L114.609 495.891ZM418.572 71.2765C418.572 70.5375 418.572 69.6599 418.941 68.6899C419.311 67.72 419.403 66.5191 419.773 65.0872C420.107 63.7579 420.556 62.46 421.112 61.2073C421.708 59.8808 422.452 58.6258 423.329 57.466C424.181 56.2878 425.158 55.2037 426.24 54.2328C427.194 53.3977 428.213 52.6412 429.289 51.9696C430.414 51.2818 431.605 50.7091 432.846 50.2606C434.186 49.7987 435.433 49.4292 436.541 49.1521C437.668 48.9253 438.811 48.7867 439.96 48.7364C441.114 48.6698 442.271 48.6698 443.424 48.7364C444.998 48.9719 446.544 49.3585 448.044 49.8911C449.469 50.4186 450.832 51.1003 452.109 51.9234C453.303 52.7044 454.417 53.6019 455.436 54.6023C456.442 55.6065 457.368 56.6878 458.207 57.8356C459.117 59.1067 459.862 60.4877 460.424 61.9464C461.031 63.5311 461.405 65.1962 461.532 66.8886C461.669 68.5795 461.669 70.2784 461.532 71.9693C461.532 73.5859 461.532 74.7868 461.532 75.6644C461.532 76.542 461.209 77.1887 460.978 78.2048C460.747 79.221 460.516 80.2371 460.193 81.3457C459.877 82.4621 459.491 83.5572 459.038 84.6251C458.401 85.9687 457.644 87.2518 456.775 88.4587C455.806 89.8375 454.673 91.0934 453.402 92.2C452.222 93.1344 450.935 93.9252 449.569 94.5557C448.337 95.1238 447.052 95.5723 445.734 95.8951C444.703 96.1732 443.654 96.3737 442.593 96.4956C441.594 96.5718 440.59 96.5718 439.59 96.4956H437.049C436.049 96.4009 435.06 96.2152 434.093 95.9413C432.939 95.6323 431.81 95.2309 430.721 94.7404C429.421 94.0933 428.171 93.352 426.979 92.5234C425.676 91.6896 424.494 90.6795 423.468 89.5211C422.412 88.3239 421.527 86.9872 420.835 85.5488C420.068 84.074 419.449 82.5272 418.988 80.93C418.627 79.6635 418.395 78.3633 418.295 77.0501C418.204 75.9282 418.204 74.8002 418.295 73.6783C418.295 72.7545 418.295 71.7384 418.572 70.7684V71.2765ZM396.398 17.097C606.238 17.0994 776.35 187.19 776.346 397.004C776.346 606.818 606.233 776.908 396.389 776.903C186.548 776.899 16.439 606.808 16.4414 396.996C16.4426 296.24 56.474 199.611 127.729 128.366C198.912 57.0125 295.603 16.9686 396.398 17.097ZM45.5485 524.435H161.035C137.732 484.413 125.473 438.923 125.512 392.612C125.281 245.455 246.68 126.195 396.398 126.195C546.115 126.195 667.515 245.455 667.515 392.612C667.552 438.923 655.296 484.413 631.991 524.435H747.247C817.441 330.692 717.268 116.734 523.498 46.5482C329.728 -23.6376 115.743 76.5259 45.5485 270.27C15.799 352.38 15.799 442.324 45.5485 524.435ZM668.763 608.453L671.72 614.272C671.72 614.272 673.567 618.891 672.228 620.508C670.888 622.125 655.228 632.148 655.228 632.148C653.546 632.217 651.888 632.577 650.331 633.21C648.807 634.087 647.375 632.609 648.576 630.808C649.777 629.007 649.592 628.314 651.994 626.743L657.538 622.956C658.623 622.065 659.519 620.965 660.17 619.723C660.956 618.014 663.451 615.473 662.48 613.949C661.51 612.425 660.586 610.346 660.586 610.346C660.586 610.346 657.122 611.501 656.337 612.887C655.552 614.272 652.733 618.476 651.209 618.845C649.685 619.215 648.622 619.584 647.235 617.829C645.702 616.152 645.254 613.755 646.081 611.64C646.958 610.236 648.165 609.062 649.592 608.222L653.841 605.312C654.442 604.896 655.042 603.279 653.841 602.91C652.641 602.54 649.962 604.157 648.576 605.45C647.421 606.527 645.762 606.864 644.279 606.328C642.848 605.958 639.105 606.328 638.32 607.714C637.535 609.099 637.073 611.455 635.456 612.332C633.951 613.062 632.251 613.289 630.605 612.979C629.451 612.748 629.312 613.487 629.497 614.596C629.682 615.704 631.114 617.737 631.114 618.984C630.846 620.268 629.7 621.182 628.388 621.155C626.726 620.914 625.234 619.995 624.277 618.614C622.854 616.965 621.843 615.002 621.321 612.887C621.025 611.15 621.187 609.367 621.782 607.714C622.337 605.312 621.782 603.649 622.291 602.171C622.799 600.693 623.122 600.185 624 600.185C624.878 600.185 626.864 599.769 625.987 598.383C625.109 596.998 623.538 594.919 623.538 594.919C623.538 592.979 623.191 591.058 622.521 589.238C621.699 587.843 621.33 586.231 621.459 584.619C621.538 583.404 621.395 582.185 621.043 581.016C620.651 579.16 619.579 577.511 618.041 576.398C616.84 575.243 613.421 575.197 614.068 573.672C614.225 572.328 615.435 571.368 616.779 571.52C617.076 571.557 617.362 571.64 617.625 571.779C619.75 572.61 621.413 571.779 620.813 570.532C620.212 569.285 618.595 567.114 619.935 565.913C621.265 564.984 622.674 564.162 624.138 563.465C625.248 562.864 627.927 562.218 628.758 563.465C629.511 564.384 630.121 565.409 630.559 566.513C631.021 567.668 631.668 568.592 632.5 567.067C633.332 565.543 635.456 561.94 634.579 560.37C634.043 559.128 633.655 557.825 633.424 556.49C632.962 555.335 633.747 553.118 634.764 552.934C635.78 552.749 636.888 553.534 636.796 554.366C636.667 555.557 637.53 556.629 638.722 556.753C638.787 556.763 638.856 556.767 638.921 556.767C641.734 557.363 644.266 558.874 646.127 561.063C646.732 562.416 647.957 563.395 649.407 563.696C650.285 563.696 651.116 564.481 650.47 566.883C649.823 569.285 649.084 571.502 651.855 570.578C654.474 569.428 656.951 567.987 659.247 566.282C660.946 565.368 662.932 565.151 664.79 565.682C667.885 566.282 669.04 566.19 669.732 566.79C670.736 567.733 671.35 569.021 671.442 570.393C671.775 572.291 670.962 574.208 669.363 575.289C667.377 576.629 664.097 578.707 663.035 579.354C661.972 580 659.57 581.94 659.57 581.94C660.484 585.076 660.484 588.411 659.57 591.548L662.203 595.381C663.229 596.504 664.92 596.702 666.176 595.843C668.716 594.411 668.901 592.564 670.796 593.164C672.69 593.765 674.629 594.504 674.953 596.12C674.934 598.014 673.941 599.76 672.32 600.739C670.888 601.571 668.67 602.91 668.763 603.695C668.116 604.619 669.548 608.314 669.548 608.314L668.763 608.453ZM639.706 571.502C639.706 571.502 635.78 575.381 638.32 578.107C640.861 580.832 640.861 579.538 641.878 580.324C642.894 581.109 642.339 581.802 642.201 582.356C642.062 582.91 639.937 584.434 638.967 583.788C637.567 582.01 636.362 580.088 635.364 578.06C635.272 575.543 635.914 573.058 637.212 570.901C638.874 569.285 639.105 569.1 639.521 569.977C639.941 570.347 639.984 570.989 639.609 571.414C639.581 571.442 639.553 571.474 639.521 571.502H639.706ZM632.315 604.111C631.991 604.111 630.605 604.111 630.929 603.141C631.252 602.171 631.945 602.402 632.454 602.217C636.787 599.621 640.279 595.838 642.524 591.317C643.217 589.515 644.048 587.714 644.926 587.621C645.804 587.529 646.727 588.453 646.173 589.238C645.619 590.023 642.801 595.15 642.386 595.52C640.889 597.497 639.248 599.363 637.489 601.109C635.895 602.268 634.191 603.27 632.408 604.111H632.315ZM648.761 584.157C648.299 583.141 651.809 582.264 652.548 580.693C653.329 579.215 654.193 577.779 655.135 576.398C655.135 576.398 656.568 576.028 656.706 577.229C656.845 578.43 654.812 581.109 653.888 581.848C652.964 582.587 649.269 585.266 648.761 584.296V584.157ZM574.849 651.039C574.849 651.039 575.68 654.965 578.776 653.025C581.87 651.085 584.503 649.976 587.091 653.025C589.165 655.15 589.58 658.392 588.107 660.969C587.091 662.309 581.362 665.819 582.147 670.207C582.933 674.595 585.15 683.463 585.288 685.126C585.889 689.343 583.63 693.449 579.746 695.195C573.602 698.521 569.351 700.368 568.612 700.692C567.873 701.015 564.363 702.031 564.363 698.89C564.363 695.75 565.425 695.195 567.596 693.856C569.808 692.359 571.606 690.327 572.816 687.944C573.689 685.907 574.008 683.676 573.74 681.477C573.278 680.507 573.371 679.075 571.154 680.092C568.936 681.108 565.379 682.632 565.379 682.632C563.185 682.553 561.05 681.897 559.189 680.738C556.741 678.937 556.417 678.336 556.371 676.119C556.325 673.902 557.48 672.055 559.466 672.424C561.359 673.2 563.536 672.452 564.548 670.669C565.979 668.36 569.582 665.034 569.166 661.431C568.52 657.976 567.203 654.678 565.287 651.732C564.548 650.762 560.667 647.528 560.436 645.127C559.664 643.016 560.754 640.683 562.862 639.916C562.871 639.912 562.875 639.912 562.884 639.907C565.425 638.706 568.658 638.66 569.49 639.907C570.719 641.87 571.833 643.907 572.816 646.004C573.278 647.436 574.618 650.623 574.618 650.623L574.849 651.039ZM594.205 672.286C594.205 672.286 603.859 668.96 608.062 670.438C612.267 671.916 613.329 671.778 613.837 672.84C614.798 674.23 614.798 676.068 613.837 677.459C612.59 679.214 611.389 683.094 606.769 682.309C603.744 681.745 600.764 680.96 597.854 679.953C595.775 679.399 589.539 677.597 590.047 675.334C590.758 673.745 592.245 672.641 593.974 672.424L594.205 672.286ZM453.91 715.334L452.987 708.913C452.987 708.913 453.818 705.172 456.452 705.819C458.31 706.521 459.917 707.759 461.071 709.375C461.272 710.687 461.113 712.026 460.609 713.255C459.617 715.278 459.617 717.652 460.609 719.675C461.625 722.216 462.087 725.818 463.751 726.326C465.413 726.835 466.845 728.913 468.6 728.035C470.356 727.158 473.22 726.373 472.527 722.862C472.112 719.056 471.895 715.237 471.881 711.408C471.511 709.883 471.881 702.17 471.604 701.061C471.326 699.953 473.451 697.874 474.236 696.719C475.022 695.565 474.791 694.872 474.236 694.179C473.465 692.636 473.239 690.881 473.59 689.191C474.005 687.667 475.945 686.881 477.008 686.696C478.07 686.512 480.15 685.449 480.15 684.71V683.14C477.719 684.595 475.151 685.8 472.481 686.743C470.634 687.02 467.215 685.449 466.984 683.048C466.79 680.683 468.051 678.433 470.171 677.366C472.343 676.119 475.714 675.611 476.869 674.826C479.101 673.403 481.531 672.318 484.076 671.593C486.109 671.269 489.527 669.838 490.497 671.085C491.531 672.42 491.638 674.253 490.774 675.704C489.896 676.904 488.418 678.521 488.326 679.907L488.049 684.018C488.049 684.018 491.143 684.618 491.652 685.634C491.956 687.209 491.712 688.84 490.959 690.253C490.358 691.408 490.959 691.177 490.959 691.177L496.133 690.715C499.385 691.214 502.083 693.5 503.108 696.627C503.755 700.507 507.127 717.227 507.127 717.227L507.45 722.17C506.757 724.216 505.155 725.818 503.108 726.511C499.943 726.738 496.77 726.179 493.87 724.895C493.87 724.895 490.728 727.805 489.573 727.389C488.418 726.973 484.953 727.666 484.122 724.895C483.29 722.123 479.087 720.784 478.487 716.996C477.885 713.209 481.166 711.592 481.766 710.761C482.367 709.929 477.978 707.99 477.146 709.283C476.888 712.742 476.888 716.216 477.146 719.675C477.123 722.599 477.451 725.514 478.116 728.359C478.441 729.375 489.758 729.929 495.81 729.005C502.046 728.206 508.221 726.973 514.287 725.31C519.969 723.509 523.757 722.493 523.757 722.493C523.757 722.493 526.529 722.955 524.311 725.587C522.094 728.22 517.937 731.638 518.168 733.44C518.399 735.241 517.568 735.888 517.568 735.888C517.568 735.888 511.47 738.197 509.576 737.273C507.344 736.331 504.831 736.331 502.6 737.273C498.724 739.019 494.424 739.615 490.22 738.982C487.956 737.643 486.201 738.52 483.706 738.982C480.671 739.144 477.636 738.673 474.791 737.597C470.592 736.539 466.194 736.539 461.994 737.597C459.685 739.028 454.88 740.368 454.049 739.306C453.217 738.243 448.737 736.765 449.43 733.162C449.74 730.631 452.044 728.83 454.576 729.139C454.868 729.176 455.156 729.236 455.436 729.329C456.867 730.345 457.976 729.329 457.606 728.128C456.207 725.153 455.063 722.059 454.187 718.89C454.067 717.754 454.067 716.608 454.187 715.472L453.91 715.334ZM459.777 697.228C459.777 697.228 462.78 696.165 462.502 694.549C462.225 692.932 460.516 689.93 458.807 690.253C457.098 690.576 453.541 690.253 452.987 693.255C452.432 696.258 453.587 696.95 455.111 696.719C456.668 696.683 458.221 696.853 459.731 697.228H459.777ZM495.625 716.627L499.458 716.026C499.551 715.26 499.551 714.484 499.458 713.717C499.237 711.006 498.789 708.317 498.119 705.68C497.796 706.465 495.856 702.262 495.994 699.676C496.221 698.498 495.454 697.362 494.276 697.131C493.773 697.034 493.254 697.117 492.806 697.366C493.777 699.491 493.176 703.371 493.083 701.754C492.991 700.137 493.87 706.373 494.516 707.204C495.639 708.059 496.706 708.983 497.703 709.976C498.165 710.761 499.043 711.177 497.703 713.44C496.364 715.703 495.302 716.211 495.394 716.627H495.625ZM357.872 732.146C353.224 731.925 348.61 733.033 344.567 735.333C340.361 737.703 335.445 738.488 330.709 737.55C327.245 736.534 324.149 733.393 324.981 732.008C325.813 730.622 330.57 730.714 332.465 729.929C334.4 729.098 336.461 728.599 338.562 728.451C340.041 728.451 342.812 726.234 342.812 726.234C342.812 726.234 343.597 725.31 341.473 725.079C338.993 724.465 336.451 724.137 333.897 724.109L326.275 724.479C324.65 724.234 323.197 723.329 322.255 721.985C321.331 720.83 317.636 719.213 320.038 717.043C322.44 714.872 328.676 716.165 331.078 716.165C333.481 716.165 335.098 717.782 336.576 716.165C338.054 714.548 338.423 714.179 337.73 713.578C337.038 712.978 333.897 707.851 337.315 707.158C340.734 706.465 343.551 704.802 343.644 702.77C343.644 702.77 339.948 701.8 339.301 699.676C338.467 697.639 338.784 695.315 340.133 693.579C341.704 692.193 342.212 692.332 344.198 692.701C345.476 693.135 346.885 692.927 347.986 692.147C350.247 690.895 352.753 690.156 355.331 689.976C357.482 690.599 359.387 691.874 360.782 693.625C361.613 694.733 362.398 698.244 361.244 699.398C359.295 701.144 357.474 703.029 355.793 705.033C355.378 706.003 355.793 706.742 356.948 707.25C358.886 708.913 360.458 710.955 361.567 713.255C361.874 715.274 361.684 717.334 361.013 719.26C360.274 721.523 360.089 721.985 362.167 723.878C364.247 725.772 365.771 726.696 366.787 727.574C369.029 729.019 371.433 730.197 373.947 731.084C377.804 733.038 381.538 735.232 385.126 737.643C387.958 739.338 390.512 741.458 392.702 743.924C393.627 745.633 395.197 748.543 393.765 750.114C392.105 751.435 389.823 751.652 387.945 750.668C385.079 747.984 382.023 745.513 378.798 743.278C376.835 741.777 374.766 740.419 372.608 739.213C369.789 738.012 369.882 736.303 368.773 735.888C367.665 735.472 365.679 735.287 364.847 734.871C364.016 734.456 362.537 732.931 361.567 732.885C360.149 733.038 358.718 732.761 357.456 732.1L357.872 732.146ZM352.513 677.921C353.629 676.932 354.891 676.124 356.255 675.519C357.717 675.265 359.212 675.727 360.274 676.766C361.521 678.105 364.893 681.385 363.369 684.11C361.844 686.835 360.643 688.267 358.749 688.175C356.856 688.082 351.404 685.727 351.127 684.433C350.85 683.14 350.388 682.078 351.497 681.246C352.605 680.415 351.82 677.874 352.282 677.921H352.513ZM364.062 703.232C364.385 701.385 366.88 702.216 367.064 703.232C367.249 704.248 369.466 703.232 370.622 704.202C371.777 705.172 375.749 707.943 375.564 711.5C375.379 715.056 373.393 717.966 369.882 716.442C366.371 714.918 363.739 705.264 364.062 703.417V703.232ZM346.23 719.629H349.003C349.003 719.629 348.587 718.105 347.663 717.966C346.738 717.828 346.276 718.936 346.23 719.537V719.629ZM236.194 702.493C236.194 702.493 229.08 713.809 224.739 712.839C220.396 711.869 218.733 711.408 217.994 709.468C217.233 706.872 216.129 704.387 214.714 702.077C213.79 701.569 213.143 701.754 211.988 702.077C209.324 702.47 206.624 701.639 204.643 699.814C203.443 697.92 202.242 695.195 203.073 693.717C203.655 692.017 205.168 690.812 206.953 690.623C209.261 690.161 211.518 689.477 213.697 688.59C213.697 688.59 215.591 684.202 218.872 683.371C222.151 682.539 224.369 681.939 224.369 681.939C224.369 681.939 224.137 672.701 224.369 670.808C224.9 667.611 226.534 664.701 228.988 662.586C231.39 661.108 238.227 658.614 238.55 657.967L239.52 655.935C239.52 655.935 234.901 652.886 235.409 651.316C235.917 649.745 236.98 649.468 238.504 649.514C240.883 649.284 243.283 649.427 245.618 649.93C247.281 650.669 247.327 649.191 247.327 649.191C247.327 649.191 245.618 644.572 248.76 643.972C251.139 642.535 254.235 643.297 255.673 645.676C256.456 646.974 256.614 648.549 256.105 649.976C255.643 650.715 258.414 651.085 258.414 651.085C258.414 651.085 261.509 650.115 261.74 651.547C261.971 652.979 264.651 656.166 262.479 658.013C260.823 659.487 258.422 659.759 256.474 658.706C254.626 658.013 254.441 658.706 253.887 659.491C253.398 660.041 253.119 660.743 253.102 661.477C253.102 662.17 254.58 663.002 255.781 663.417C256.982 663.833 260.123 665.496 261.37 665.958C262.736 666.498 264.142 666.928 265.575 667.251C266.544 667.251 268.808 667.944 268.854 670.253C268.845 673.214 268.082 676.124 266.637 678.706C265.249 679.602 263.488 679.69 262.017 678.937C261.647 678.567 259.292 679.214 256.798 681.385C252.574 684.752 247.811 687.375 242.708 689.144C240.907 689.422 239.844 693.486 240.86 694.364C242.405 696.188 244.417 697.565 246.68 698.336C250.238 699.537 257.768 702.632 257.768 702.632C257.768 702.632 260.77 705.634 259.199 708.451C258.207 710.798 256.935 713.015 255.412 715.056C252.77 716.234 249.684 715.768 247.513 713.856C243.938 710.622 240.829 706.904 238.273 702.816C237.719 701.431 235.917 702.355 235.917 702.355L236.194 702.493ZM241.6 659.815C241.6 659.815 245.433 661.755 243.078 663.094C241.763 664.096 240.058 664.438 238.458 664.018C237.349 664.018 236.518 663.048 237.58 662.678C238.642 662.309 240.352 661.524 240.352 661.524L241.461 659.815H241.6ZM251.485 670.161C251.485 670.161 252.963 668.96 253.563 669.838C254.306 670.577 254.31 671.773 253.574 672.517C253.423 672.669 253.248 672.794 253.055 672.886C251.485 673.902 250.423 673.117 250.746 672.286C251.069 671.454 251.485 670.161 251.485 670.161ZM219.149 698.752L229.45 692.655C229.791 694.664 229.362 696.724 228.249 698.428C227.166 700.244 225.719 701.819 223.999 703.047C223.629 703.74 220.581 702.308 220.073 700.784C219.564 699.26 219.149 698.937 219.149 698.937V698.752ZM233.746 671.408L237.118 676.581C237.118 676.581 237.118 679.214 235.502 678.798C233.885 678.383 232.592 678.383 232.176 676.72C232.102 674.826 232.654 672.96 233.746 671.408ZM153.136 624.203L145.56 633.441C143.204 635.833 140.603 637.967 137.799 639.815C135.49 640.831 134.381 640.785 133.18 641.847C131.979 642.909 131.47 643.787 130.5 643.556C129.53 643.325 128.93 643.002 129.346 641.893C129.672 640.619 129.672 639.288 129.346 638.013C130.679 635.381 132.225 632.863 133.966 630.485C135.136 628.845 136.434 627.302 137.845 625.866C139.418 624.351 141.119 622.979 142.927 621.755C144.22 620.785 145.421 620.323 145.514 618.522C145.606 616.72 143.666 615.242 141.634 614.827C139.781 614.563 138.317 613.118 138.03 611.27C137.522 609.192 138.954 607.667 140.479 605.958C142.192 604.531 144.679 604.531 146.391 605.958C147.821 607.367 149.611 608.36 151.566 608.822C152.905 609.099 153.829 607.298 153.829 607.298C153.829 607.298 153.829 606.928 150.919 606.328C148.009 605.727 142.742 603.741 142.742 603.741L132.949 602.356C131.014 601.788 129.13 601.058 127.313 600.185C126.205 599.353 123.248 596.028 123.525 595.15C123.802 594.273 125.143 593.441 127.36 594.273C129.577 595.104 135.397 596.536 135.397 596.536C136.958 596.157 138.605 596.37 140.017 597.136C140.899 597.834 141.987 598.226 143.112 598.245L145.283 599.076C145.283 599.076 146.715 598.661 145.606 597.46C144.305 595.723 144.305 593.33 145.606 591.594C147.038 588.961 148.979 588.545 152.72 588.13L155.031 585.774C156.311 585.155 157.684 584.749 159.095 584.573C160.204 584.573 162.282 584.573 163.022 585.081C164.11 585.829 165.27 586.462 166.487 586.975C167.993 587.446 169.539 587.788 171.106 587.991C171.106 587.991 171.661 587.621 170.552 586.79C169.443 585.959 168.565 586.559 167.918 586.19C167.272 585.82 164.731 583.973 164.731 583.973C164.731 583.973 161.728 583.003 161.081 581.709C160.473 580.005 160.329 578.176 160.666 576.398C160.989 574.827 162.144 571.779 164.87 572.148C167.968 572.259 171.014 572.98 173.832 574.273C174.416 574.735 175.033 575.151 175.679 575.52L175.91 574.873C175.91 574.873 169.997 569.608 170.644 566.929C171.291 564.25 176.788 563.465 178.867 564.296C180.841 565.382 182.698 566.666 184.41 568.13C185.318 569.668 185.798 571.423 185.796 573.211C185.472 575.335 185.472 576.767 186.258 576.813C187.044 576.86 188.983 573.719 188.983 573.719C190.281 571.52 193.113 570.795 195.31 572.093C195.342 572.111 195.374 572.13 195.405 572.148C197.954 573.049 199.291 575.848 198.391 578.398C198.353 578.499 198.313 578.605 198.268 578.707C197.33 580.222 196.125 581.552 194.712 582.633C194.712 582.633 194.296 583.372 195.589 584.203C197.46 585.631 197.957 588.236 196.744 590.254C195.981 591.049 194.88 591.427 193.788 591.27C192.851 591.206 192.013 590.665 191.57 589.839C190.97 588.591 192.032 587.113 191.016 586.328C190 585.543 188.753 585.312 188.383 586.051C188.013 586.79 187.09 587.899 187.552 588.961C188.013 590.023 188.337 591.501 186.582 591.963C184.655 592.799 182.84 593.871 181.177 595.15C181.177 595.15 181.177 596.259 182.47 595.474C183.571 594.813 184.798 594.388 186.074 594.226C186.813 594.226 189.676 594.873 189.907 596.49C190.138 598.106 190.831 599.446 190.646 600.231C190.461 601.016 191.847 604.342 191.154 605.45C190.461 606.559 189.63 608.499 187.136 607.529C184.641 606.559 181.407 606.882 180.761 607.991C180.114 609.099 181.869 609.7 182.886 610.069C184.057 610.249 185.215 610.508 186.351 610.854C188.116 611.436 189.546 612.748 190.277 614.457C191.662 616.905 192.263 618.198 192.032 619.538C191.801 620.877 191.478 622.171 189.076 621.755C186.656 620.854 184.395 619.575 182.377 617.968C180.253 616.72 174.663 613.349 173.416 612.332C172.169 611.316 168.426 610.208 167.826 611.132C167.826 611.132 167.318 611.132 168.704 612.055C169.826 612.804 170.878 613.654 171.845 614.596C172.783 616.148 173.307 617.912 173.37 619.723C173.37 621.94 171.06 621.986 170.506 622.263C169.951 622.54 168.195 623.972 166.717 623.649C165.056 622.868 163.503 621.875 162.098 620.693C162.098 620.693 158.818 620.231 157.848 621.293C155.816 622.91 153.505 624.526 153.505 624.526L153.136 624.203ZM171.892 603.187L172.769 601.986C173.299 601.635 173.874 601.353 174.478 601.155C175.125 601.155 175.402 601.617 174.801 602.402C174.201 603.187 173.416 604.296 173.093 604.157C172.769 604.019 171.845 603.464 171.892 603.187ZM160.989 595.705C160.573 595.705 162.791 595.705 163.53 596.536C164.269 597.367 164.824 597.875 163.53 598.845C161.409 599.954 159.038 600.494 156.647 600.416C155.954 599.908 156.37 599.353 157.386 598.892C158.402 598.43 160.158 598.661 160.481 598.383C160.968 597.797 161.415 597.183 161.82 596.536C161.708 596.203 161.498 595.917 161.22 595.705H160.989ZM174.432 524.25C174.848 524.851 175.217 525.498 175.633 526.144L177.065 528.361C177.573 529.146 178.082 529.978 178.636 530.763L179.745 532.472L182.747 536.814L183.902 538.43C184.456 539.262 185.056 540.093 185.703 540.925L187.09 542.818C188.013 544.065 188.937 545.313 189.907 546.513L191.293 548.315L192.956 550.439L195.128 553.072L197.668 556.075L199.054 557.691C199.7 558.476 200.347 559.215 201.04 559.954C201.734 560.693 202.842 561.987 203.766 562.957L205.752 565.128L207.276 566.744L209.263 568.776L212.127 571.64L214.298 573.719C214.898 574.365 215.545 574.966 216.192 575.566L217.948 577.229L221.227 580.231L223.26 582.033L225.339 583.834L227.048 585.312L230.466 588.176L232.684 589.931L234.763 591.594L237.303 593.58L240.399 595.935L242.292 597.321L244.879 599.123L247.697 601.109L250.192 602.818C250.931 603.326 251.67 603.834 252.455 604.296L255.551 606.328L257.583 607.621L261.001 609.7L262.756 610.762L267.376 613.349L267.884 613.626L271.95 615.843L273.797 616.813C275.183 617.552 276.568 618.291 278 618.984L279.572 619.815L283.036 621.478L285.022 622.448L289.365 624.434L291.166 625.219L294.4 626.605L296.386 627.436L301.005 629.238L303.039 629.977L306.226 631.177L308.304 631.963L312.924 633.625L314.31 634.087L318.237 635.335L319.992 635.843C321.655 636.397 323.364 636.859 325.074 637.367L326.228 637.69L331.078 638.983L332.003 639.214L337.546 640.508L338.608 640.785L343.228 641.801H344.29L349.926 642.863H350.989L356.255 643.695H356.994L362.769 644.48H363.923L369.004 645.08H369.974L375.564 645.542H377.135L382.401 645.866H383.417H389.238H390.67H396.629H402.589H404.02H409.841H410.488L415.753 645.542H417.371L422.914 645.08H423.884L428.919 644.48H430.166L435.941 643.695H436.68C438.435 643.464 440.145 643.14 441.9 642.863H442.963L448.599 641.801H449.661L454.28 640.785L455.389 640.508L460.886 639.214L461.902 638.937L466.522 637.736L467.908 637.321L472.943 635.843L474.606 635.335L478.533 634.087L480.011 633.579C481.628 633.071 483.244 632.517 484.63 631.917L486.617 631.224L489.896 629.977L491.883 629.238L496.502 627.39L498.304 626.651L501.861 625.127L503.432 624.434L508.051 622.402L510.038 621.478L513.363 619.815L515.026 618.984C516.458 618.291 517.845 617.552 519.23 616.813L521.124 615.843L524.496 613.995L526.437 612.887L529.947 610.854L531.979 609.607L535.167 607.667L537.292 606.328L540.48 604.296L542.512 602.91L545.238 601.062L548.102 599.03L550.504 597.321L552.49 595.843C553.414 595.196 554.338 594.504 555.263 593.765L558.126 591.594L560.297 589.885L562.237 588.268C563.439 587.298 564.64 586.328 565.795 585.312L567.365 583.973L569.721 581.94L571.569 580.277L574.941 577.183L576.558 575.659L578.73 573.58L580.531 571.825L583.625 568.73L585.427 566.79L587.229 564.943L589.077 562.957C590.001 561.894 590.971 560.878 591.941 559.816L593.742 557.691L595.406 555.797L597.115 553.765L599.84 550.439L601.55 548.315L603.213 546.19L604.829 544.019C605.707 542.911 606.538 541.756 607.37 540.647L608.894 538.477L610.327 536.444L612.959 532.657L614.207 530.763L616.008 528.038L616.794 526.745L618.457 524.158C642.921 484.634 655.907 439.091 655.967 392.612C655.967 251.875 539.834 137.742 396.629 137.742C253.425 137.742 137.06 251.875 137.06 392.612C137.027 439.172 149.968 484.819 174.432 524.435V524.25ZM428.503 75.064C428.503 76.2187 428.226 77.512 428.18 78.9438C428.083 80.4819 428.083 82.0246 428.18 83.5627C428.247 84.7364 428.449 85.899 428.781 87.0269C429.104 87.8121 429.427 88.5511 429.797 89.2901C430.204 90.1188 430.733 90.8818 431.367 91.5534C432.17 92.3917 433.127 93.0661 434.186 93.5395C435.277 94.0494 436.45 94.3621 437.65 94.4633C438.372 94.5201 439.098 94.5201 439.822 94.4633C440.716 94.4716 441.606 94.3307 442.454 94.0476C443.502 93.6462 444.425 92.9774 445.133 92.1077C446.163 91.0139 446.991 89.7474 447.582 88.3664C448.22 87.08 448.731 85.7341 449.107 84.3479C449.521 82.6731 449.845 80.9771 450.077 79.2672C450.446 77.0963 450.677 75.4797 450.816 74.3712C450.954 73.2626 451.093 71.5074 451.231 69.7523C451.37 67.9971 451.231 66.5652 451.555 65.1334C451.878 63.7015 451.555 62.1773 451.555 61.0688C451.483 59.993 451.313 58.9265 451.047 57.8817C450.854 57.0037 450.559 56.151 450.169 55.3414C449.249 53.7391 447.794 52.5123 446.057 51.8772C445.023 51.4597 443.934 51.195 442.824 51.092C441.872 50.9982 440.913 50.9982 439.96 51.092C439.011 51.2666 438.093 51.5779 437.234 52.0158C435.957 52.6583 434.861 53.6111 434.047 54.7871C432.972 56.1825 432.13 57.7423 431.552 59.406C430.998 61.2226 430.536 62.9316 430.166 64.5329C429.751 66.1495 429.381 68.228 428.965 70.7684C428.55 73.3088 428.365 74.6945 428.365 74.9716L428.503 75.064ZM504.956 62.2235L520.939 66.8424L520.293 69.0594L517.937 68.4128C517.207 68.1763 516.439 68.0516 515.673 68.0433C515.206 67.9657 514.731 68.0645 514.333 68.3204C513.927 68.635 513.608 69.0488 513.41 69.5213C513.16 70.0451 512.943 70.5851 512.763 71.1379L500.659 111.784L496.733 110.676L482.413 66.011L473.174 97.0499C472.971 97.6813 472.832 98.3311 472.758 98.9898C472.629 99.521 472.629 100.075 472.758 100.606C472.999 101.058 473.368 101.428 473.821 101.669C474.449 101.962 475.119 102.164 475.807 102.269L478.902 103.101L478.209 105.364L462.041 100.745L462.733 98.4817L465.275 99.1745C465.875 99.3505 466.499 99.4438 467.122 99.4517C467.626 99.4558 468.115 99.3284 468.554 99.0822C468.956 98.7912 469.289 98.412 469.524 97.9736C469.921 97.3288 470.217 96.6282 470.402 95.8951L479.919 63.8863C480.27 62.7847 480.533 61.6572 480.704 60.5145C480.81 59.7796 480.662 59.0305 480.288 58.3898C479.674 57.6277 478.805 57.1178 477.839 56.958L475.253 56.2189L475.899 54.0481L489.758 57.8356L502.138 96.6342L510.084 69.9832C510.084 69.2442 510.407 68.5975 510.5 67.9971C510.629 67.5601 510.629 67.0946 510.5 66.6576C510.25 66.3024 509.918 66.0161 509.53 65.8262C509.105 65.5777 508.656 65.3763 508.189 65.2258L504.54 64.2096L505.187 62.0387L504.956 62.2235ZM563.578 87.304L565.656 88.3202L558.08 102.639L556.002 101.577L556.325 100.699C556.648 99.6364 556.925 98.6665 557.156 97.6965C557.369 96.5981 557.369 95.4693 557.156 94.3709C557.013 93.17 556.639 92.0088 556.048 90.9529C555.466 89.9451 554.8 88.9871 554.061 88.0892C553.442 87.3424 552.744 86.6611 551.982 86.0569C551.359 85.5858 550.694 85.1687 549.996 84.8098L548.056 84.1632C547.302 84.0648 546.545 84.0648 545.792 84.1632C544.859 84.2495 543.94 84.4671 543.067 84.8098C541.783 85.3507 540.573 86.0491 539.463 86.8883C538.174 87.8149 536.987 88.867 535.906 90.0292C534.89 91.1372 533.953 92.3095 533.089 93.5395C532.164 94.7866 531.425 95.8951 530.871 96.8189C530.317 97.7427 529.716 98.6665 529.254 99.5441C528.792 100.422 528.284 101.484 527.73 102.777C527.176 104.071 526.852 104.81 526.344 106.011C525.836 107.212 525.421 108.413 525.051 109.521C524.705 110.71 524.488 111.934 524.404 113.17C524.275 114.426 524.385 115.696 524.728 116.911C525.042 118.085 525.661 119.154 526.529 120.006C527.384 120.924 528.404 121.676 529.531 122.223C530.363 122.668 531.25 123.009 532.164 123.239C533.167 123.453 534.193 123.531 535.214 123.47C536.368 123.387 537.505 123.138 538.585 122.731C539.565 122.466 540.439 121.901 541.081 121.114C541.589 120.468 542.004 119.867 542.42 119.267L543.159 118.066L545.191 114.232C545.51 113.718 545.686 113.128 545.699 112.523C545.653 112.066 545.418 111.648 545.053 111.369C544.526 110.948 543.954 110.592 543.344 110.306L541.496 109.382L542.605 107.212L560.205 115.849L559.096 118.02L557.572 117.281L556.279 116.726C555.914 116.635 555.535 116.635 555.169 116.726C554.846 116.804 554.564 117.002 554.384 117.281C554.384 117.604 553.83 118.297 553.229 119.267L545.284 133.124L542.559 131.784L543.113 130.352C543.113 130.075 543.113 129.567 543.529 128.874C543.686 128.222 543.686 127.541 543.529 126.888C543.422 126.331 543.062 125.854 542.559 125.595C541.921 125.445 541.256 125.445 540.619 125.595L537.154 126.057C535.911 126.169 534.655 126.169 533.412 126.057C532.447 126.029 531.485 125.906 530.548 125.687C529.855 125.52 529.176 125.304 528.515 125.04C527.961 124.81 527.314 124.532 526.621 124.163C525.855 123.852 525.116 123.481 524.404 123.054C523.942 122.777 523.387 122.362 522.694 121.853C521.909 121.264 521.166 120.615 520.477 119.914C519.591 118.979 518.842 117.921 518.26 116.773C517.632 115.648 517.138 114.454 516.781 113.216C516.472 111.913 516.287 110.582 516.227 109.244C516.079 107.893 516.079 106.53 516.227 105.179C516.463 103.866 516.787 102.569 517.198 101.299C517.66 99.8674 518.076 98.7588 518.399 98.0198C518.722 97.2808 519.23 96.1723 519.969 94.7866C520.339 94.0938 520.662 93.4933 520.985 92.9852C521.309 92.4772 521.909 91.6458 522.741 90.5834C523.572 89.5211 524.496 88.4126 525.559 87.2578C526.723 85.9964 528.058 84.9077 529.531 84.0246C530.996 83.0703 532.539 82.251 534.151 81.5766C535.639 80.948 537.186 80.4685 538.77 80.1448C540.286 79.8094 541.847 79.7314 543.39 79.9138C544.591 80.0468 545.783 80.2782 546.947 80.6066C547.779 80.8302 548.583 81.1397 549.349 81.5304C549.973 81.8925 550.578 82.2939 551.151 82.7313C551.922 83.2209 552.633 83.7937 553.275 84.4403C554.015 85.1331 554.615 85.7798 555.169 86.3802L557.757 89.7982C558.089 90.2241 558.537 90.5446 559.05 90.722C559.369 90.7936 559.701 90.7936 560.02 90.722C560.473 90.607 560.879 90.3474 561.175 89.983L562.006 88.6897L562.792 87.6735L563.578 87.304ZM582.055 97.327L600.533 110.121L599.101 112.061L597.484 110.953C596.981 110.597 596.417 110.332 595.821 110.168C595.258 110.053 594.676 110.053 594.112 110.168C593.446 110.291 592.813 110.559 592.264 110.953C591.608 111.375 591.031 111.906 590.555 112.523L574.294 134.093C573.167 135.519 572.207 137.069 571.431 138.712C571.029 139.927 571.029 141.239 571.431 142.454C571.671 143.794 572.188 145.069 572.955 146.195C573.68 147.243 574.585 148.15 575.634 148.874C576.133 149.3 576.673 149.671 577.25 149.982C578.137 150.387 579.048 150.742 579.977 151.045C581.233 151.461 582.535 151.725 583.856 151.83C585.159 151.928 586.467 151.739 587.691 151.276C588.652 150.963 589.557 150.496 590.37 149.89C590.878 149.428 591.479 148.874 592.125 148.181C592.735 147.523 593.308 146.829 593.835 146.103L609.772 125.04C610.239 124.455 610.613 123.801 610.881 123.101C611.043 122.656 611.14 122.188 611.158 121.715C611.163 121.286 611.033 120.865 610.789 120.514C610.498 120.088 610.142 119.713 609.726 119.405L607.277 117.743L608.755 115.757L620.766 124.163L619.288 126.149L617.718 125.04C617.321 124.746 616.863 124.541 616.377 124.44C615.92 124.328 615.449 124.328 614.992 124.44C614.456 124.646 613.948 124.91 613.468 125.225C612.932 125.586 612.461 126.04 612.082 126.565L596.145 147.627C595.221 148.92 594.528 149.751 594.159 150.213C593.576 150.878 592.924 151.481 592.218 152.015C591.146 152.838 589.945 153.478 588.661 153.909C585.662 154.912 582.42 154.912 579.422 153.909C578.017 153.351 576.645 152.719 575.311 152.015C574.281 151.506 573.292 150.919 572.354 150.26C571.366 149.641 570.437 148.929 569.582 148.135C568.381 146.992 567.254 145.773 566.21 144.486C565.028 143.056 564.261 141.331 563.993 139.498C563.818 138.179 563.818 136.844 563.993 135.525C564.164 134.763 564.409 134.02 564.732 133.308C565.005 132.689 565.31 132.088 565.656 131.507C565.979 130.999 566.395 130.352 566.996 129.521L583.672 107.489C584.143 106.89 584.517 106.219 584.78 105.503C584.997 104.942 585.122 104.349 585.15 103.747C585.117 103.16 584.91 102.597 584.549 102.131C584.152 101.484 583.612 100.932 582.979 100.514L581.362 99.3593L582.84 97.4194L582.055 97.327ZM649.407 153.077L660.586 164.717L658.831 166.241L657.168 164.532C656.646 163.981 656.055 163.501 655.413 163.1C655.042 162.817 654.585 162.671 654.119 162.684C653.597 162.761 653.107 162.968 652.687 163.285C652.179 163.598 651.703 163.953 651.255 164.347L618.919 193.169L616.146 190.305L628.25 144.902L603.628 166.934C603.148 167.379 602.7 167.857 602.289 168.366C601.887 168.769 601.614 169.284 601.504 169.844C601.429 170.324 601.531 170.814 601.781 171.229C602.118 171.865 602.552 172.442 603.074 172.938L605.245 175.202L603.49 176.818L591.987 164.948L593.789 163.377L595.59 165.225C596.006 165.678 596.491 166.067 597.022 166.379C597.461 166.626 597.951 166.753 598.454 166.749C598.958 166.735 599.452 166.592 599.886 166.333C600.556 165.948 601.175 165.483 601.735 164.948L627.049 142.223C627.936 141.465 628.758 140.631 629.497 139.729C630.005 139.171 630.301 138.451 630.328 137.696C630.194 136.745 629.719 135.875 628.989 135.248L627.141 133.354L628.85 131.784L638.643 141.853L628.25 181.298L649.361 162.361C649.86 161.905 650.322 161.41 650.747 160.883C651.066 160.524 651.26 160.07 651.301 159.59C651.269 159.167 651.14 158.757 650.932 158.389C650.705 157.971 650.424 157.583 650.1 157.234L647.514 154.555L649.223 153.031L649.407 153.077ZM627.141 198.435L628.111 199.682C628.573 200.248 629.067 200.788 629.589 201.298C629.954 201.688 630.444 201.934 630.975 201.991C631.52 202.056 632.07 201.942 632.546 201.668C633.253 201.31 633.918 200.877 634.533 200.374L664.097 178.158C664.652 177.8 665.127 177.328 665.483 176.772C665.709 176.475 665.853 176.125 665.899 175.756C665.922 175.367 665.825 174.981 665.622 174.647C665.4 174.106 665.086 173.606 664.698 173.169L663.358 171.553L665.252 170.075L679.111 186.98L677.17 188.412L675.692 186.564C675.322 186.031 674.851 185.576 674.306 185.225C673.983 185.035 673.618 184.924 673.244 184.901C672.833 184.815 672.408 184.815 671.997 184.901C671.438 185.098 670.925 185.396 670.471 185.779L640.908 207.949C640.247 208.421 639.669 208.999 639.198 209.658C638.847 210.106 638.648 210.658 638.643 211.229C638.657 211.791 638.833 212.337 639.151 212.799C639.438 213.287 639.762 213.75 640.122 214.185L641.139 215.478L639.151 216.956L625.294 199.82L627.28 198.342L627.141 198.435ZM700.637 220.882L709.045 234.739L706.781 236.217L706.088 235.062C705.788 234.603 705.432 234.183 705.026 233.815C704.656 233.449 704.236 233.138 703.779 232.891C703.252 232.673 702.689 232.548 702.116 232.522C701.38 232.417 700.632 232.417 699.898 232.522L654.904 241.991L652.548 238.065L681.097 205.732C681.956 204.804 682.658 203.743 683.175 202.592C683.531 201.743 683.72 200.833 683.73 199.913C683.73 199.101 683.619 198.294 683.406 197.511C683.305 197.006 683.115 196.522 682.852 196.079L682.39 195.247L684.607 194L696.665 214.139L694.448 215.386L693.661 214.046C693.37 213.539 692.996 213.086 692.553 212.707C692.068 212.29 691.477 212.019 690.844 211.922C690.174 211.793 689.481 211.925 688.904 212.291C688.387 212.562 687.929 212.94 687.564 213.4L666.73 236.494L694.448 230.536L696.434 229.981C697.071 229.77 697.69 229.508 698.281 229.196C699.048 228.828 699.667 228.209 700.036 227.441C700.193 226.898 700.193 226.321 700.036 225.778C699.893 225.14 699.644 224.531 699.297 223.977L698.05 221.898L700.267 220.651L700.637 220.882ZM668.301 259.542L669.455 262.221C669.635 262.73 669.885 263.212 670.194 263.653C670.388 263.981 670.68 264.24 671.027 264.392C671.489 264.558 671.997 264.558 672.459 264.392L674.676 263.653L709.738 250.72C710.505 250.529 711.197 250.111 711.724 249.519C711.941 248.971 711.941 248.359 711.724 247.81L710.292 244.531L712.648 243.653L727.292 280.327L714.172 284.946L713.387 282.96L714.495 282.313L715.927 281.528C716.574 281.205 717.222 280.789 717.914 280.373C718.57 279.987 719.175 279.522 719.716 278.988C720.233 278.482 720.653 277.888 720.963 277.233C721.254 276.543 721.429 275.809 721.471 275.062C721.536 274.263 721.536 273.459 721.471 272.66C721.245 271.635 720.935 270.631 720.547 269.658L715.927 258.018L697.45 264.9L700.221 271.875L700.868 273.353C701.103 273.855 701.473 274.285 701.931 274.6C702.435 274.924 703.003 275.129 703.594 275.2C704.374 275.338 705.169 275.338 705.95 275.2C706.915 275.02 707.871 274.789 708.813 274.507L709.969 274.184L710.8 276.263L692.922 282.821L692.091 280.789L693.338 280.235C694.309 279.771 695.251 279.246 696.156 278.664C696.942 278.227 697.584 277.568 698.004 276.771C698.24 276.185 698.318 275.549 698.235 274.923C698.101 274.178 697.884 273.449 697.588 272.752L694.863 265.87L678.557 271.875L676.061 272.845C675.798 273.004 675.563 273.207 675.369 273.445C675.165 273.714 675.036 274.033 674.999 274.369C675.041 274.919 675.198 275.453 675.461 275.939L678.51 283.56C678.741 284.161 678.972 284.761 679.296 285.454C679.508 286 679.771 286.526 680.081 287.025C680.312 287.394 680.681 287.995 681.235 288.734C681.725 289.434 682.335 290.044 683.037 290.535C683.748 291.014 684.529 291.387 685.346 291.644C686.322 291.928 687.333 292.083 688.35 292.105C689.726 292.141 691.107 292.033 692.46 291.782L694.17 291.505L695.048 293.768L681.189 297.463L666.453 260.512L669.04 259.542H668.301ZM728.354 291.874L730.802 291.32L737.223 318.017C737.454 319.034 737.639 319.957 737.778 320.743C737.87 321.803 737.87 322.869 737.778 323.93C737.667 325.323 737.191 326.662 736.392 327.809C735.787 328.833 735.006 329.741 734.083 330.488C733.32 331.044 732.48 331.48 731.587 331.782C730.927 332.053 730.248 332.285 729.555 332.474C729.047 332.432 728.539 332.432 728.031 332.474C727.324 332.541 726.613 332.541 725.906 332.474C725.047 332.481 724.196 332.308 723.411 331.966C722.362 331.626 721.379 331.111 720.501 330.442C719.73 329.92 719.018 329.316 718.376 328.641C717.72 327.933 717.12 327.176 716.574 326.378C715.96 325.474 715.405 324.533 714.911 323.56L713.479 320.927V322.729C713.479 323.191 713.479 323.699 713.479 324.345C713.415 325.115 713.258 325.875 713.017 326.608C712.722 327.579 712.255 328.487 711.632 329.287C711.05 330.159 710.232 330.847 709.275 331.274C708.398 331.643 706.688 332.197 704.194 332.983L701.283 333.906C700.235 334.066 699.251 334.532 698.466 335.246C698.198 335.832 698.198 336.507 698.466 337.093C698.572 337.688 698.882 338.228 699.344 338.618C699.861 339.032 700.457 339.332 701.099 339.495C701.903 339.698 702.721 339.837 703.548 339.911H705.626H706.642V342.174H705.349H703.086H700.406C699.145 342.079 697.893 341.878 696.665 341.574C695.528 341.237 694.452 340.722 693.476 340.049C692.497 339.4 691.652 338.569 690.982 337.601C690.41 336.711 690.003 335.726 689.781 334.692C689.481 333.478 689.481 332.21 689.781 330.996C690.123 329.779 690.83 328.698 691.814 327.902C692.668 327.225 693.597 326.651 694.586 326.193L696.988 325.315L699.02 324.761L702.439 323.93L705.857 323.006C706.975 322.73 708.06 322.327 709.09 321.805C709.761 321.419 710.329 320.881 710.754 320.234C711.211 319.583 711.465 318.812 711.493 318.017C711.479 316.815 711.308 315.619 710.985 314.461L710.108 310.673L692.183 314.646C691.624 314.744 691.079 314.915 690.567 315.154C690.142 315.329 689.749 315.579 689.412 315.893C689.163 316.202 688.987 316.566 688.904 316.955C688.793 317.488 688.793 318.038 688.904 318.572L689.32 320.281L686.779 320.835L682.159 301.482L684.654 300.927L685.162 303.006C685.286 303.57 685.49 304.114 685.762 304.623C685.951 304.988 686.239 305.292 686.594 305.5C686.95 305.694 687.347 305.789 687.749 305.777C688.451 305.753 689.144 305.66 689.828 305.5L724.336 297.833C725.195 297.667 726.031 297.404 726.83 297.048C727.375 296.842 727.855 296.491 728.215 296.032C728.534 295.589 728.751 295.086 728.862 294.553C728.991 293.851 728.991 293.131 728.862 292.429L728.585 291.413L728.354 291.874ZM712.694 310.35L713.479 313.676C713.761 314.725 714.103 315.758 714.495 316.77C714.943 317.862 715.585 318.864 716.389 319.726C717.272 320.656 718.39 321.326 719.623 321.666C720.801 322.035 722.034 322.207 723.272 322.174C724.298 322.142 725.319 322.019 726.322 321.805C727.301 321.534 728.257 321.195 729.186 320.789C730.035 320.446 730.83 319.979 731.541 319.403C732.146 318.836 732.623 318.142 732.928 317.371C733.307 316.464 733.496 315.489 733.482 314.507C733.477 313.589 733.371 312.675 733.159 311.782L732.512 309.057C732.397 308.199 731.929 307.428 731.218 306.932C730.072 306.58 728.853 306.58 727.707 306.932L712.694 310.258V310.35ZM710.385 346.193V348.225L708.12 348.733C706.98 349.035 705.866 349.437 704.795 349.934C703.612 350.443 702.532 351.163 701.608 352.059C700.826 352.873 700.115 353.754 699.482 354.691C698.822 355.759 698.235 356.87 697.727 358.017C697.196 359.222 696.835 360.498 696.665 361.804C696.554 362.91 696.554 364.024 696.665 365.13C696.711 366.577 697.071 367.996 697.727 369.287C698.203 370.238 698.863 371.086 699.667 371.781C700.313 372.318 701.048 372.74 701.839 373.028C702.767 373.367 703.765 373.478 704.749 373.352C706 373.22 707.206 372.793 708.259 372.104C709.201 371.4 710.001 370.522 710.616 369.518C711.502 367.856 712.214 366.107 712.74 364.299C713.572 361.897 714.218 359.68 714.634 358.155C715.05 356.631 715.465 355.246 715.696 354.507C716.024 353.604 716.44 352.737 716.943 351.92C717.471 350.959 718.108 350.06 718.838 349.241C719.568 348.452 720.39 347.754 721.286 347.162C722.224 346.55 723.231 346.054 724.288 345.684C725.481 345.289 726.728 345.072 727.985 345.038C728.446 344.993 728.908 344.993 729.37 345.038H731.125L733.898 345.546C735.011 345.82 736.064 346.306 736.992 346.978C738.004 347.689 738.946 348.493 739.81 349.38C740.707 350.278 741.441 351.326 741.982 352.474C742.388 353.371 742.73 354.298 742.998 355.246C743.16 355.991 743.27 356.748 743.321 357.509C743.367 358.247 743.367 358.987 743.321 359.726C743.234 360.687 743.095 361.643 742.906 362.59C742.628 363.837 742.398 364.853 742.167 365.638L741.335 367.994C741.136 368.508 740.966 369.032 740.827 369.564C740.739 369.959 740.739 370.37 740.827 370.765C740.869 371.018 740.998 371.248 741.197 371.412C741.501 371.602 741.852 371.713 742.213 371.735H745.169L745.446 373.952L729.047 375.661V373.444C729.971 373.444 730.987 372.89 731.957 372.566C734.156 371.947 736.073 370.574 737.362 368.687C738.143 367.621 738.812 366.475 739.348 365.269C739.843 364.212 740.245 363.115 740.55 361.989C740.813 361.148 740.984 360.281 741.058 359.403C741.104 358.834 741.104 358.262 741.058 357.694C740.91 356.576 740.601 355.487 740.134 354.46C739.63 353.513 738.942 352.679 738.101 352.012C737.283 351.344 736.364 350.813 735.376 350.442C734.517 350.131 733.607 349.989 732.697 350.026C731.92 350.074 731.162 350.295 730.479 350.673C729.721 351.041 729.056 351.578 728.539 352.243C727.804 353.125 727.227 354.125 726.83 355.199C726.188 356.707 725.634 358.249 725.167 359.818C724.613 361.635 724.011 363.713 723.365 366.054C722.718 368.409 722.21 370.026 721.887 370.996C721.489 372.056 720.995 373.077 720.409 374.044C719.836 375.089 719.102 376.039 718.238 376.862C717.231 377.739 716.07 378.427 714.819 378.894C713.345 379.478 711.784 379.821 710.2 379.91C708.453 379.958 706.707 379.74 705.026 379.264C703.127 378.762 701.353 377.882 699.805 376.677C698.156 375.485 696.84 373.897 695.972 372.058C695.131 370.341 694.572 368.501 694.309 366.608C694.217 365.625 694.217 364.635 694.309 363.652C694.387 362.669 694.558 361.694 694.817 360.742C695.094 359.726 695.556 358.571 696.11 357.139C696.618 355.88 697.187 354.646 697.819 353.444C698.42 352.336 698.743 351.643 698.882 351.366C699.02 351.089 698.882 350.858 698.882 350.719C698.849 350.451 698.697 350.212 698.466 350.072C698.156 349.855 697.782 349.742 697.404 349.749H695.371H693.061V347.578L710.939 346.1L710.385 346.193ZM697.542 384.899V386.469C697.487 387.192 697.487 387.917 697.542 388.64C697.565 389.16 697.778 389.653 698.143 390.026C698.549 390.383 699.043 390.623 699.574 390.719C700.374 390.777 701.177 390.777 701.977 390.719L739.44 391.365C740.116 391.461 740.799 391.461 741.474 391.365C742.277 391.212 742.892 390.56 742.998 389.749C743.155 389.209 743.234 388.648 743.229 388.086V385.961H745.677L745.261 407.393H742.813V405.037C742.91 404.425 742.91 403.802 742.813 403.19C742.656 402.858 742.434 402.56 742.167 402.312C741.866 402.009 741.501 401.773 741.104 401.619C740.536 401.452 739.94 401.374 739.348 401.388L701.885 400.742C701.057 400.715 700.235 400.808 699.436 401.019C698.868 401.158 698.35 401.464 697.958 401.896C697.598 402.33 697.371 402.86 697.311 403.42C697.27 403.974 697.27 404.53 697.311 405.083V406.7H694.817L695.233 385.037L697.542 384.899ZM745.076 415.891L739.995 455.66L722.533 453.582L722.81 451.226H724.798C725.352 451.226 726.553 451.226 728.308 450.81L732.604 450.164C733.676 449.921 734.706 449.516 735.653 448.963C736.484 448.505 737.219 447.894 737.824 447.161C738.304 446.515 738.591 445.747 738.655 444.944L739.209 440.602L698.189 435.753C697.593 435.661 696.983 435.661 696.387 435.753C695.907 435.837 695.45 436.026 695.048 436.307C694.618 436.703 694.286 437.193 694.078 437.739C693.796 438.517 693.597 439.322 693.476 440.141L693.199 442.542L690.567 442.219L693.707 417.416L696.341 417.739L696.064 420.649C695.981 421.432 695.981 422.222 696.064 423.005C696.115 423.552 696.304 424.077 696.618 424.529C696.849 424.943 697.163 425.304 697.542 425.591C698.184 425.826 698.849 425.98 699.528 426.053L740.273 430.672L740.735 427.115C740.878 426.259 740.878 425.385 740.735 424.529C740.559 423.843 740.282 423.188 739.903 422.589C739.427 421.825 738.835 421.14 738.147 420.557C737.288 419.862 736.36 419.258 735.376 418.755C734.267 418.247 733.066 417.739 731.772 417.277C730.479 416.815 729.278 416.4 728.215 416.076L727.107 415.753L727.43 413.582L744.892 415.614L745.076 415.891ZM737.916 464.944L732.003 486.191L729.878 485.637V484.944C729.961 484.44 729.961 483.923 729.878 483.42C729.855 482.773 729.647 482.149 729.278 481.618C728.931 481.092 728.377 480.741 727.754 480.648C726.922 480.565 726.091 480.565 725.259 480.648H723.226L707.705 482.911L718.931 493.443C719.568 494.052 720.261 494.593 721.009 495.059C721.573 495.433 722.196 495.701 722.857 495.844C723.66 496.158 724.548 496.158 725.352 495.844C725.929 495.526 726.437 495.082 726.83 494.551C727.121 494.154 727.356 493.72 727.523 493.258L727.846 492.103L729.971 492.657L725.814 507.576L723.688 507.022V506.56C723.794 506.103 723.794 505.632 723.688 505.174C723.48 504.375 723.185 503.599 722.81 502.865C722.478 502.098 722.058 501.368 721.563 500.694C720.709 499.72 719.799 498.791 718.838 497.923L704.61 484.39L689.042 480.371C688.294 480.145 687.518 480.02 686.733 480.002C686.211 479.974 685.688 480.066 685.208 480.279C684.732 480.496 684.316 480.828 684.007 481.249C683.614 481.983 683.305 482.754 683.083 483.558L682.205 486.745L679.665 486.052L686.548 461.295L689.135 461.942L688.119 465.452C687.906 466.237 687.795 467.041 687.795 467.854C687.754 468.39 687.883 468.921 688.165 469.378C688.46 469.771 688.821 470.113 689.227 470.394C689.962 470.805 690.756 471.101 691.583 471.272L702.855 474.182L724.427 470.902C725.998 470.653 727.546 470.265 729.047 469.748C730.179 469.373 731.25 468.847 732.234 468.177C733.006 467.674 733.704 467.064 734.313 466.376C734.688 465.956 734.983 465.471 735.191 464.944V464.482L737.362 465.036L737.916 464.944ZM97.0095 405.591H99.4578L101.629 424.898L99.2269 425.175L98.9958 423.282C98.9621 422.759 98.8037 422.253 98.5339 421.804C98.3057 421.431 97.9666 421.141 97.5638 420.972C97.0169 420.842 96.4478 420.842 95.9008 420.972C95.2588 421.033 94.6245 421.157 94.0068 421.342L86.8005 424.021L88.602 440.649L97.841 442.311C98.34 442.449 98.8665 442.449 99.3654 442.311C100.248 442.191 100.879 441.397 100.797 440.51C100.843 440.003 100.843 439.493 100.797 438.986L100.566 436.907L103.015 436.63L104.585 451.411H102.184V449.933C102.1 449.385 101.929 448.855 101.676 448.362C101.361 447.792 100.954 447.278 100.474 446.838C99.9161 446.333 99.2754 445.927 98.5801 445.637C97.8392 445.308 97.0645 445.061 96.2704 444.898L53.0321 436.03L52.1081 427.485L90.9118 412.658C91.3737 412.658 92.2515 412.15 93.4987 411.596C94.4586 411.245 95.3498 410.729 96.1318 410.072C96.6672 409.582 97.0654 408.961 97.2866 408.27C97.4017 407.629 97.4017 406.972 97.2866 406.33V405.545L97.0095 405.591ZM85.8303 439.956L84.1673 424.806L58.7602 434.506L85.8303 439.956ZM80.8413 402.497V400.418C81.6105 400.46 82.3819 400.46 83.1511 400.418C84.3151 400.254 85.4604 399.976 86.5694 399.587C87.8306 399.24 89.0085 398.643 90.0341 397.832C90.9169 397.119 91.7364 396.331 92.4824 395.476C93.2811 394.499 94.0068 393.465 94.6536 392.381C95.3336 391.244 95.8467 390.016 96.178 388.732C96.4847 387.665 96.6552 386.563 96.6861 385.453C96.84 384.017 96.6662 382.563 96.178 381.204C95.801 380.223 95.2536 379.315 94.5612 378.525C93.9782 377.921 93.3088 377.407 92.5748 377C91.6791 376.577 90.7012 376.357 89.7107 376.354C88.4436 376.317 87.1875 376.604 86.0614 377.185C85.0279 377.776 84.1179 378.559 83.382 379.495C82.3177 381.043 81.3902 382.681 80.6103 384.391C79.5017 386.7 78.624 388.64 77.931 390.303C77.2381 391.966 76.7761 393.074 76.4528 393.767C76.0167 394.636 75.4901 395.457 74.8822 396.215C74.228 397.104 73.4848 397.924 72.6648 398.663C71.8375 399.343 70.939 399.931 69.9856 400.418C68.9646 400.898 67.8961 401.269 66.7981 401.527C65.5564 401.696 64.298 401.696 63.0563 401.527C62.5957 401.577 62.131 401.577 61.6705 401.527L60.0537 400.972C59.1473 400.741 58.2529 400.463 57.3743 400.141C56.2971 399.734 55.3085 399.123 54.464 398.34C53.5628 397.498 52.7285 396.587 51.9695 395.615C51.2059 394.61 50.6128 393.486 50.2141 392.289C49.8931 391.362 49.6764 390.401 49.5674 389.425C49.4958 388.657 49.4958 387.884 49.5674 387.116C49.6224 386.388 49.7147 385.663 49.8445 384.945C50.0493 384.006 50.3116 383.08 50.6298 382.174C51.0456 380.927 51.4152 379.957 51.7386 379.218L52.8472 376.954C53.1392 376.486 53.3868 375.991 53.5863 375.476C53.6861 375.098 53.6861 374.7 53.5863 374.322C53.6939 374.103 53.6939 373.847 53.5863 373.629C53.3027 373.402 52.9711 373.244 52.6163 373.167L49.706 372.705V370.442H66.1976V372.659L63.1949 373.167C62.1462 373.344 61.1327 373.687 60.1922 374.183C59.1024 374.748 58.1301 375.516 57.3281 376.446C56.4176 377.388 55.612 378.425 54.926 379.541C54.306 380.544 53.7652 381.594 53.3092 382.682C52.9534 383.485 52.6749 384.32 52.4777 385.176C52.4347 385.76 52.4347 386.347 52.4777 386.931C52.4477 388.046 52.62 389.157 52.9859 390.21C53.3355 391.215 53.9037 392.13 54.6489 392.889C55.3769 393.654 56.238 394.28 57.1896 394.737C58.0109 395.152 58.9052 395.404 59.8226 395.476C60.5955 395.524 61.3688 395.397 62.0862 395.107C62.8558 394.813 63.5612 394.373 64.165 393.813C65.0182 393.01 65.736 392.074 66.29 391.042C67.1085 389.542 67.8486 388 68.5073 386.423C69.2926 384.668 70.1703 382.682 71.0942 380.418C72.0181 378.155 72.711 376.631 73.173 375.8C73.7157 374.8 74.3333 373.843 75.0207 372.936C75.7197 371.969 76.5609 371.112 77.5152 370.395C78.6461 369.66 79.8967 369.129 81.2108 368.825C82.805 368.393 84.4583 368.221 86.1076 368.317C87.838 368.485 89.5342 368.905 91.1427 369.564C92.955 370.294 94.6037 371.378 95.9932 372.751C97.4779 374.231 98.5727 376.056 99.1807 378.063C99.6791 380.007 99.8667 382.018 99.735 384.021C99.7368 384.998 99.644 385.972 99.4578 386.931C99.2943 387.915 99.0152 388.876 98.6263 389.795C98.2105 390.765 97.6101 391.873 96.8709 393.213C96.1318 394.552 95.3927 395.661 94.6998 396.677C94.2281 397.296 93.7962 397.943 93.4063 398.617C93.3472 398.828 93.3472 399.052 93.4063 399.263C93.4146 399.529 93.5315 399.779 93.7297 399.956C94.0198 400.192 94.3736 400.337 94.746 400.372L96.7785 400.649H99.042V402.774L80.8413 402.497ZM49.7522 356.308L56.9586 316.863L74.2816 319.819L73.8659 322.128H71.9257L68.3687 322.359C66.5671 322.359 65.135 322.682 64.0726 322.821C62.9727 322.993 61.9102 323.353 60.9313 323.883C60.0726 324.28 59.3025 324.845 58.6678 325.546C58.1726 326.18 57.8395 326.925 57.6977 327.717L56.9124 332.013L97.6101 338.941C98.2068 339.034 98.8148 339.034 99.4116 338.941C99.9106 338.897 100.388 338.722 100.797 338.433C101.28 338.095 101.637 337.608 101.814 337.047C102.184 336.322 102.433 335.542 102.553 334.738L103.015 332.336L105.602 332.798L100.982 357.37L98.3492 356.955L98.8111 353.998C98.9122 353.232 98.9122 352.455 98.8111 351.689C98.7838 351.157 98.642 350.637 98.3954 350.165C98.0766 349.722 97.6461 349.371 97.1481 349.149C96.5406 348.839 95.8842 348.636 95.2079 348.548L54.7874 341.666L54.1407 345.176C53.9652 346.029 53.9652 346.91 54.1407 347.763C54.2677 348.457 54.5015 349.127 54.8336 349.749C55.2882 350.53 55.8476 351.245 56.4966 351.874C57.299 352.624 58.2003 353.262 59.176 353.767C60.3142 354.401 61.4862 354.972 62.6867 355.476C63.9802 356.031 65.135 356.446 66.1514 356.816L67.26 357.185L66.8443 359.403L49.7522 356.308ZM84.2135 315.015C82.2272 314.461 80.749 314.045 79.594 313.676C78.4988 313.312 77.433 312.864 76.4066 312.336C75.291 311.755 74.2109 311.107 73.173 310.396C72.1877 309.657 71.1713 308.826 70.1241 307.902C69.1633 307.061 68.2818 306.133 67.491 305.131C66.7297 304.101 66.0941 302.985 65.597 301.805C65.0168 300.642 64.5674 299.418 64.2573 298.156C63.9483 297.043 63.7927 295.893 63.7955 294.738C63.74 293.769 63.74 292.797 63.7955 291.828C63.9128 291.112 64.067 290.403 64.2573 289.704L64.8579 288.226C65.0741 287.688 65.3208 287.164 65.597 286.655C65.9203 286.055 66.2438 285.5 66.5209 285.085C66.7981 284.669 67.3062 283.93 68.1377 282.868L69.6621 280.835C70.0983 280.373 70.4996 279.879 70.8632 279.357C71.096 279.048 71.2397 278.68 71.2789 278.295C71.4444 277.96 71.4444 277.568 71.2789 277.233C71.0679 276.852 70.7455 276.546 70.3551 276.355L68.3687 275.293L69.2926 273.168L85.5532 276.909L84.9064 279.034H83.2896H81.3032H79.0859C78.1375 279.127 77.2058 279.344 76.3142 279.681C75.2448 280.028 74.2442 280.56 73.3577 281.251C72.3886 281.997 71.4915 282.832 70.6785 283.745C69.9828 284.564 69.3642 285.445 68.8306 286.378C68.4182 287.12 68.0629 287.892 67.7682 288.687C67.4706 289.645 67.315 290.641 67.3062 291.644C67.357 292.559 67.5436 293.462 67.8606 294.323C68.2675 295.372 68.8801 296.33 69.6621 297.14C70.532 298.095 71.5086 298.947 72.5724 299.68C73.736 300.475 74.9561 301.185 76.2218 301.805C77.5263 302.467 78.8683 303.053 80.2408 303.56C81.6266 304.022 83.2435 304.53 85.1374 304.992L89.7569 306.193L94.6074 307.163C96.1429 307.322 97.6914 307.322 99.2269 307.163C100.802 307.073 102.358 306.762 103.846 306.239C105.214 305.769 106.483 305.048 107.588 304.115C108.554 303.286 109.395 302.322 110.083 301.251C110.644 300.416 111.065 299.496 111.33 298.526C111.505 297.874 111.629 297.21 111.7 296.54C111.789 295.633 111.789 294.721 111.7 293.814C111.579 292.836 111.298 291.884 110.868 290.997C110.428 290.058 109.902 289.161 109.298 288.318C108.668 287.493 107.973 286.721 107.218 286.008L105.278 284.161L103.338 282.498L104.863 281.02L106.387 282.313L107.449 283.145L109.344 284.992C110.016 285.728 110.648 286.499 111.238 287.302C111.914 288.222 112.487 289.213 112.947 290.258C113.492 291.41 113.91 292.618 114.194 293.861C114.357 295.102 114.357 296.36 114.194 297.602C114.099 298.867 113.882 300.12 113.547 301.343C113.332 302.185 113.038 303.005 112.67 303.791C112.247 304.757 111.769 305.698 111.238 306.609C110.354 308.068 109.3 309.417 108.096 310.627C106.7 312.12 105.04 313.341 103.2 314.23C101.437 315.025 99.5705 315.569 97.6563 315.846C95.9133 316.106 94.1514 316.214 92.39 316.17C91.0434 316.142 89.7001 316.018 88.3711 315.8C87.2624 315.8 85.9689 315.292 84.4445 314.923L84.2135 315.015ZM73.2654 260.097L82.5043 242.268L84.6293 243.284L83.5668 245.27C83.1922 245.903 82.9122 246.588 82.7353 247.302C82.6946 247.672 82.7755 248.045 82.9663 248.365C83.479 248.948 84.1304 249.393 84.8603 249.658L98.7187 256.54L106.248 242.314L92.39 235.478C91.7668 235.157 91.0961 234.938 90.4036 234.831C89.9972 234.707 89.5629 234.707 89.1564 234.831C88.7489 235.192 88.4187 235.632 88.1863 236.125L86.9391 238.48L84.8141 237.464L94.053 219.681L96.1318 220.744L95.0231 222.868C94.637 223.431 94.3985 224.083 94.3302 224.762C94.3523 225.157 94.5363 225.524 94.8383 225.778C95.4264 226.386 96.1826 226.804 97.0095 226.979L131.378 243.838C132.204 244.253 133.071 244.579 133.966 244.808C134.451 244.862 134.936 244.711 135.305 244.392C135.787 243.948 136.179 243.415 136.46 242.822L137.522 240.882L139.74 241.944L130.269 259.866L128.006 258.757L129.161 256.586C129.353 255.975 129.416 255.33 129.346 254.692C129.348 254.235 129.184 253.792 128.884 253.445C128.188 252.823 127.391 252.323 126.528 251.967L108.928 243.33L101.629 257.787L119.229 266.424C119.981 266.799 120.771 267.093 121.585 267.302C122.095 267.402 122.624 267.303 123.063 267.025C123.6 266.573 124.026 266.004 124.311 265.362L125.42 263.237L127.683 264.346L118.121 282.406L115.857 281.297L116.781 279.634C117.047 279.117 117.264 278.576 117.428 278.018C117.565 277.614 117.565 277.175 117.428 276.771C117.252 276.411 116.98 276.108 116.643 275.893C116.039 275.477 115.406 275.107 114.748 274.785L80.1022 257.833C79.5686 257.482 78.939 257.304 78.3005 257.325C77.8793 257.404 77.5014 257.634 77.2381 257.972C76.8075 258.516 76.4357 259.104 76.1295 259.727L75.3442 261.205L73.2192 260.189L73.2654 260.097ZM138.584 238.85L139.462 237.51C139.925 236.771 140.294 236.125 140.572 235.617C140.748 235.14 140.748 234.615 140.572 234.138C140.442 233.617 140.131 233.158 139.694 232.845C139.089 232.327 138.439 231.863 137.753 231.46L106.248 212.337C105.683 211.969 105.058 211.703 104.401 211.552C104.022 211.458 103.625 211.458 103.246 211.552C102.877 211.668 102.544 211.875 102.276 212.153C101.836 212.536 101.462 212.988 101.168 213.492L99.966 215.293L97.8872 214.046L109.713 195.894L111.746 197.141L110.452 199.127C110.067 199.638 109.785 200.218 109.621 200.836C109.553 201.187 109.553 201.548 109.621 201.899C109.722 202.291 109.912 202.654 110.175 202.961C110.58 203.397 111.047 203.77 111.561 204.07L143.343 223.192C144.043 223.641 144.806 223.983 145.606 224.208C146.164 224.371 146.757 224.371 147.316 224.208C147.857 224.015 148.336 223.68 148.702 223.238L149.718 221.898L150.596 220.513L152.72 221.806L140.756 240.282L138.584 238.85ZM133.365 164.948L144.082 152.661L145.883 154.139L144.313 155.941C143.808 156.502 143.373 157.122 143.02 157.788C142.813 158.187 142.717 158.634 142.742 159.082C142.893 159.571 143.163 160.016 143.528 160.375C143.934 160.815 144.366 161.232 144.821 161.622L178.451 188.781L175.864 191.783L127.775 186.333L153.505 207.118C154.031 207.53 154.586 207.9 155.169 208.227C155.647 208.529 156.181 208.733 156.74 208.827C157.259 208.814 157.76 208.636 158.172 208.319C158.778 207.924 159.323 207.441 159.788 206.887L161.82 204.531L163.715 206.056L152.905 218.434L151.011 216.956L152.72 214.97C153.137 214.519 153.48 214.004 153.736 213.446C153.87 212.994 153.87 212.512 153.736 212.06C153.635 211.581 153.413 211.136 153.09 210.767C152.624 210.16 152.08 209.616 151.473 209.15L125.189 187.719C124.279 186.981 123.321 186.302 122.324 185.686C121.627 185.381 120.857 185.285 120.107 185.409C119.155 185.625 118.317 186.185 117.751 186.98L115.995 188.966L114.194 187.534L123.433 176.957L165.332 181.899L143.204 163.839C142.672 163.389 142.099 162.987 141.495 162.638C141.077 162.393 140.594 162.28 140.11 162.315C139.673 162.379 139.258 162.554 138.908 162.823C138.509 163.094 138.137 163.403 137.799 163.747L135.397 166.518L133.55 165.086L133.365 164.948ZM219.657 148.458L221.273 150.213L205.844 163.146L204.228 161.391L205.706 160.144C206.138 159.814 206.486 159.386 206.722 158.897C206.859 158.493 206.859 158.054 206.722 157.65C206.556 157.13 206.272 156.655 205.891 156.264C205.5 155.763 205.032 155.326 204.505 154.971L198.084 150.814L185.103 161.853L188.983 169.982C189.149 170.463 189.435 170.892 189.815 171.229C190.158 171.473 190.553 171.632 190.97 171.691C191.408 171.663 191.834 171.537 192.217 171.322C192.669 171.045 193.101 170.736 193.511 170.398L195.128 169.012L196.744 170.814L185.103 180.79L183.486 178.989L184.641 178.019C185.076 177.662 185.437 177.222 185.703 176.726C186.339 175.488 186.534 174.071 186.258 172.707C186.106 171.931 185.874 171.172 185.564 170.444L168.288 131.276L175.032 125.364L209.91 147.442C210.683 147.964 211.485 148.443 212.312 148.874C213.175 149.444 214.127 149.866 215.129 150.121C215.841 150.307 216.589 150.307 217.301 150.121C217.931 149.866 218.522 149.524 219.056 149.105L219.657 148.597V148.458ZM183.994 159.359L195.959 149.336L172.862 134.925L183.763 159.359H183.994ZM203.258 106.888L201.918 104.995L220.396 93.5395L221.689 95.4794L220.119 96.4494C219.684 96.7446 219.281 97.085 218.918 97.4656C218.593 97.812 218.341 98.2203 218.179 98.6665C218.063 99.1556 218.146 99.6706 218.41 100.098C218.662 100.653 218.972 101.179 219.334 101.669L237.026 127.904C237.592 128.69 238.086 129.524 238.504 130.398C238.783 131.043 239.014 131.706 239.197 132.385C239.317 133.274 239.317 134.174 239.197 135.063C238.992 136.42 238.486 137.714 237.719 138.851C237.072 140.008 236.264 141.065 235.317 141.992C234.578 142.638 233.931 143.193 233.285 143.655C232.815 144.012 232.321 144.336 231.805 144.625C231.287 144.939 230.746 145.217 230.189 145.456C229.567 145.762 228.917 146.01 228.249 146.195C227.405 146.444 226.539 146.614 225.662 146.703C224.577 146.885 223.467 146.885 222.382 146.703C221.417 146.514 220.503 146.12 219.703 145.548C219.083 145.026 218.539 144.42 218.086 143.747C217.617 143.075 217.273 142.324 217.07 141.53C216.849 140.635 216.849 139.7 217.07 138.805C217.422 137.614 218.237 136.615 219.334 136.033C220.016 135.65 220.771 135.414 221.551 135.341C222.297 135.301 223.042 135.444 223.721 135.756C224.537 136.117 225.24 136.692 225.755 137.419C226.295 138.148 226.527 139.061 226.401 139.959L226.032 141.391C225.899 141.97 225.981 142.577 226.263 143.1C226.548 143.549 227.026 143.839 227.556 143.886C227.995 143.999 228.456 143.999 228.896 143.886C229.509 143.758 230.091 143.506 230.605 143.147C231.104 142.949 231.537 142.612 231.852 142.177C232.124 141.737 232.312 141.252 232.407 140.745C232.48 139.961 232.32 139.173 231.945 138.481C231.436 137.414 230.833 136.393 230.143 135.433L210.972 106.981C210.583 106.425 210.134 105.914 209.633 105.456C209.263 105.145 208.815 104.938 208.339 104.856C207.819 104.809 207.297 104.888 206.814 105.087C206.164 105.319 205.543 105.63 204.967 106.011L203.258 106.888ZM249.453 129.983L250.884 129.29L252.824 128.228C253.281 127.978 253.627 127.566 253.794 127.073C253.978 126.565 253.978 126.01 253.794 125.502C253.562 124.763 253.253 124.051 252.871 123.378L235.871 91.0453C235.586 90.4416 235.195 89.8943 234.716 89.4287C234.413 89.1733 234.07 88.9705 233.7 88.8283C233.32 88.7442 232.926 88.7442 232.546 88.8283C231.967 88.9285 231.405 89.1155 230.882 89.3825L228.896 90.3525L227.787 88.274L247.605 78.5282L248.714 80.6528L246.542 81.7152C245.944 81.9489 245.395 82.2935 244.925 82.7313C244.697 83.0112 244.511 83.3225 244.371 83.6551C244.298 84.0676 244.298 84.4897 244.371 84.9022C244.484 85.4694 244.687 86.0154 244.971 86.5188L261.971 118.851C262.335 119.562 262.803 120.216 263.357 120.791C263.78 121.193 264.309 121.466 264.882 121.576C265.437 121.756 266.035 121.756 266.591 121.576L268.161 120.93L269.685 120.191L270.795 122.362L250.746 132.2L249.453 129.983ZM319.068 101.392L319.853 103.609L300.543 109.983L299.712 107.766L301.561 107.165C302.097 107.031 302.59 106.76 302.992 106.38C303.298 106.078 303.507 105.692 303.593 105.272C303.715 104.755 303.715 104.218 303.593 103.701C303.395 103.104 303.132 102.531 302.808 101.992L298.465 95.849L281.789 101.392L282.204 110.306C282.186 110.804 282.297 111.297 282.528 111.738C282.716 112.103 283.004 112.408 283.359 112.616C283.785 112.713 284.227 112.713 284.652 112.616C285.186 112.542 285.712 112.418 286.224 112.246L288.256 111.553L289.088 113.77L274.49 118.389L273.705 116.172L275.137 115.664C275.683 115.495 276.187 115.212 276.615 114.833C277.128 114.418 277.565 113.918 277.908 113.355C278.312 112.741 278.58 112.048 278.694 111.322C278.812 110.542 278.812 109.747 278.694 108.967L277.954 66.4267L286.409 63.6553L310.107 96.6804L311.769 98.8974C312.381 99.7113 313.113 100.428 313.94 101.022C314.555 101.437 315.277 101.662 316.019 101.669C316.694 101.723 317.372 101.628 318.006 101.392L318.791 101.161L319.068 101.392ZM281.789 98.7127L296.802 93.7243L281.235 72.1079L281.789 98.7127ZM317.544 79.6367C317.544 78.8977 317.544 78.0201 317.174 77.0501C317 75.8404 316.892 74.6224 316.851 73.4012C316.733 72.0335 316.733 70.658 316.851 69.2904C317.018 67.8534 317.359 66.4419 317.867 65.0872C318.312 63.7126 318.917 62.3949 319.669 61.1612C320.301 60.0979 321.028 59.0928 321.839 58.1589C322.722 57.1889 323.696 56.3072 324.75 55.5261C325.766 54.727 326.847 54.0167 327.984 53.4014C328.971 52.8587 330.007 52.4102 331.078 52.062C332.188 51.7252 333.313 51.4476 334.451 51.2306C336.079 51.0717 337.719 51.0717 339.347 51.2306C340.913 51.3118 342.463 51.5751 343.967 52.0158C345.337 52.4338 346.667 52.9751 347.94 53.6324C349.223 54.2915 350.445 55.0642 351.589 55.9418C352.857 56.8938 353.991 58.0125 354.961 59.2674C356.027 60.6 356.899 62.0775 357.548 63.6553C358.204 65.1565 358.76 66.6997 359.211 68.2742C359.627 69.8446 359.904 71.0456 360.089 71.877C360.274 72.7084 360.089 73.4474 360.089 74.4635C360.089 75.4797 360.089 76.542 360.32 77.6967C360.412 78.8496 360.412 80.008 360.32 81.1609C360.155 82.639 359.83 84.0953 359.35 85.5027C358.839 87.1257 358.125 88.6777 357.225 90.1215C356.407 91.3539 355.428 92.4721 354.314 93.4471C353.284 94.3298 352.187 95.133 351.035 95.849C350.124 96.3806 349.184 96.8586 348.217 97.2808C347.299 97.6766 346.358 98.0161 345.399 98.297C344.599 98.5588 343.781 98.7593 342.951 98.8974C341.963 99.1048 340.958 99.2129 339.948 99.2207C338.748 99.2933 337.545 99.2933 336.345 99.2207C334.904 98.8115 333.498 98.2863 332.142 97.6503C330.648 97.2281 329.218 96.6065 327.891 95.8028C326.509 94.964 325.25 93.9381 324.149 92.7543C323.015 91.6121 321.979 90.376 321.054 89.0592C320.339 87.9442 319.721 86.7696 319.207 85.5488C318.79 84.5082 318.435 83.444 318.144 82.3618C317.913 81.438 317.682 80.4681 317.498 79.4981L317.544 79.6367ZM328.215 80.6066C328.215 81.7614 328.723 83.0546 329.092 84.4403C329.493 85.8814 329.971 87.2999 330.524 88.6897C330.927 89.8158 331.47 90.8864 332.142 91.8767C332.696 92.5234 333.204 93.1238 333.804 93.7243C334.442 94.3954 335.173 94.9714 335.975 95.4333C336.992 96.0351 338.126 96.4129 339.301 96.5418C340.494 96.7506 341.713 96.7506 342.905 96.5418L344.983 95.9875C345.835 95.7399 346.644 95.3663 347.385 94.879C348.243 94.1778 348.91 93.2725 349.326 92.2462C349.995 90.9164 350.417 89.4767 350.573 87.9969C350.78 86.5904 350.858 85.1683 350.804 83.7475C350.804 82.4542 350.527 80.7452 350.203 78.5743C349.88 76.4035 349.603 74.7868 349.418 73.6783C349.233 72.5698 348.772 70.8608 348.448 69.0594C348.125 67.2581 347.709 65.9648 347.293 64.4406C346.971 63.1089 346.57 61.7981 346.092 60.5145C345.733 59.484 345.269 58.4933 344.706 57.5584C344.229 56.7926 343.672 56.0804 343.043 55.4337C341.704 54.1488 339.953 53.3797 338.1 53.2629C336.982 53.1044 335.846 53.1044 334.728 53.2629C333.792 53.4379 332.878 53.7169 332.003 54.0943C331.152 54.5317 330.361 55.0749 329.646 55.7109C328.655 56.7289 327.912 57.9616 327.476 59.3136C326.877 61.0055 326.565 62.7847 326.552 64.5791C326.552 66.4729 326.552 68.228 326.552 69.8908C326.552 71.5536 326.921 73.6321 327.291 76.1725C327.66 78.7129 327.891 80.0986 327.984 80.3295L328.215 80.6066ZM367.942 45.7803L409.518 45.0413L409.795 61.9925H407.346L407.115 60.0988C407.115 59.5907 406.699 58.4822 406.237 56.7732C405.776 55.0642 405.314 53.8171 404.944 52.801C404.56 51.7991 403.997 50.8754 403.281 50.0758C402.686 49.3419 401.966 48.7165 401.156 48.2283C400.389 47.8772 399.549 47.7188 398.708 47.7664H394.089L394.828 87.535C394.819 88.1206 394.929 88.7022 395.151 89.2439C395.316 89.7031 395.567 90.1262 395.89 90.491C396.397 90.8125 396.962 91.0324 397.553 91.1377C398.371 91.3261 399.208 91.419 400.047 91.4148H402.589V93.9552L376.58 94.4171V91.8305H379.676C380.482 91.8388 381.287 91.7612 382.078 91.5996C382.623 91.503 383.133 91.2638 383.556 90.9068C383.956 90.5312 384.244 90.0513 384.387 89.5211C384.489 88.8786 384.489 88.2236 384.387 87.5812L383.694 48.0897H379.953C379.062 48.0805 378.173 48.2052 377.319 48.4592C376.63 48.6971 375.988 49.0569 375.425 49.5216C374.708 50.0809 374.084 50.7516 373.578 51.5077C372.964 52.3876 372.482 53.3525 372.146 54.3714C371.698 55.558 371.342 56.7783 371.084 58.0203C370.79 59.1926 370.559 60.3796 370.39 61.5768V62.6392H368.081L367.757 45.7341L367.942 45.7803ZM594.898 535.89C548.934 599.746 474.943 637.459 396.26 637.136C262.294 637.136 153.598 530.347 153.598 398.709C153.588 378.89 156.087 359.149 161.035 339.957L172.123 344.945C167.787 362.538 165.6 380.591 165.609 398.709C165.609 523.881 268.9 625.358 396.26 625.358C470.226 625.593 539.852 590.471 583.625 530.855L594.713 535.89H594.898Z" fill="#595757"/>
<path fill-rule="evenodd" clip-rule="evenodd" d="M295.046 272.152H393.349L460.193 514.412H361.89L340.086 435.383H413.629L395.15 380.973H325.073L295.046 272.152ZM171.152 272.152H269.454L299.481 380.973H232.591L251.069 435.383H314.494L336.299 514.412H237.996L171.152 272.152Z" fill="#5F956A"/>
<path fill-rule="evenodd" clip-rule="evenodd" d="M258.23 424.852L248.113 391.55L269.178 392.197L270.887 397.878L256.613 397.462L258.97 405.176L272.227 405.591L273.937 411.18L260.678 410.765L263.357 419.54L278.14 420.048L279.849 425.591L258.23 424.944V424.852ZM305.672 404.021H298.558C297.529 400.367 294.308 397.758 290.52 397.508C286.824 397.508 285.901 401.665 288.256 409.564C290.613 417.462 294.123 421.573 297.912 421.804C301.699 422.035 303.131 419.771 302.115 415.707L309.275 415.938C311.03 423.235 307.751 426.792 299.39 426.653C291.029 426.515 284.7 420.372 280.912 409.333C277.124 398.293 280.265 392.381 288.673 392.289C296.272 392.153 303.071 396.985 305.441 404.206L305.672 404.021ZM320.64 393.813H327.292L334.082 416.353C336.069 423.697 333.712 427.346 326.968 427.392C320.283 427.291 314.545 422.606 313.11 416.076H319.901C321.148 420.141 322.995 422.219 325.489 422.312C327.985 422.404 328.4 420.372 327.384 416.307C327.337 416.125 327.337 415.935 327.384 415.753L320.64 393.628V393.813ZM334.498 399.772L332.788 394.183L358.288 394.968L360.321 400.557L351.082 400.28L359.536 427.993H352.699L344.245 400.28L335.006 400.003L334.498 399.772ZM385.035 395.799H391.872L398.201 416.677C400.418 424.929 397.184 429.04 388.5 429.009C380.306 429.116 373.058 423.722 370.807 415.845L364.478 394.968H371.269L376.812 413.12C378.614 420.557 382.033 424.159 387.021 423.975C392.01 424.483 393.211 421.018 390.578 413.582L385.035 395.384V395.799Z" fill="#B81C22"/>
<path fill-rule="evenodd" clip-rule="evenodd" d="M404.988 274.738C404.988 274.738 601.548 261.759 623.121 514.412H477.7C484.906 409.564 458.759 331.181 404.988 274.738Z" fill="#404A7B"/>
</svg>
