<?xml version="1.0" standalone="no"?><!DOCTYPE svg PUBLIC "-//W3C//DTD SVG 1.1//EN" "http://www.w3.org/Graphics/SVG/1.1/DTD/svg11.dtd"><svg height="1024" node-id="1" sillyvg="true" template-height="1024" template-width="1024" version="1.1" viewBox="0 0 1024 1024" width="1024" xmlns="http://www.w3.org/2000/svg" xmlns:xlink="http://www.w3.org/1999/xlink"><defs node-id="152"><linearGradient gradientUnits="objectBoundingBox" id="SVGID_1_" node-id="5" spreadMethod="pad" x1="77.5974" x2="949.0297" y1="497.7538" y2="497.7538"><stop offset="0" stop-color="#dae2ef"></stop><stop offset="1" stop-color="#f2f2f2"></stop></linearGradient><linearGradient gradientUnits="objectBoundingBox" id="SVGID_2_" node-id="9" spreadMethod="pad" x1="87.093" x2="258.1418" y1="744.4509" y2="744.4509"><stop offset="0" stop-color="#c7d3dd"></stop><stop offset="1" stop-color="#b6c4ce"></stop></linearGradient><linearGradient gradientUnits="objectBoundingBox" id="SVGID_3_" node-id="13" spreadMethod="pad" x1="693.5446" x2="1022.453" y1="630.7075" y2="630.7075"><stop offset="0" stop-color="#c7d3dd"></stop><stop offset="1" stop-color="#b6c4ce"></stop></linearGradient><linearGradient gradientUnits="objectBoundingBox" id="SVGID_4_" node-id="18" spreadMethod="pad" x1="146.7089" x2="315.708" y1="647.6945" y2="647.6945"><stop offset="0" stop-color="#b7c5ce"></stop><stop offset="1" stop-color="#b6c4ce"></stop></linearGradient><linearGradient gradientUnits="objectBoundingBox" id="SVGID_7_" node-id="80" spreadMethod="pad" x1="283.1886" x2="515.518" y1="608.2501" y2="608.2501"><stop offset="0" stop-color="#c7d3dd"></stop><stop offset="1" stop-color="#b6c4ce"></stop></linearGradient><linearGradient gradientUnits="objectBoundingBox" id="SVGID_8_" node-id="84" spreadMethod="pad" x1="283.1886" x2="732.1259" y1="687.6613" y2="687.6613"><stop offset="0" stop-color="#c7d3dd"></stop><stop offset="1" stop-color="#b6c4ce"></stop></linearGradient><linearGradient gradientUnits="objectBoundingBox" id="SVGID_9_" node-id="88" spreadMethod="pad" x1="283.1886" x2="732.1259" y1="647.9557" y2="647.9557"><stop offset="0" stop-color="#c7d3dd"></stop><stop offset="1" stop-color="#b6c4ce"></stop></linearGradient><linearGradient gradientUnits="objectBoundingBox" id="SVGID_10_" node-id="92" spreadMethod="pad" x1="283.1886" x2="732.1259" y1="727.3668" y2="727.3668"><stop offset="0" stop-color="#c7d3dd"></stop><stop offset="1" stop-color="#b6c4ce"></stop></linearGradient><linearGradient gradientUnits="objectBoundingBox" id="SVGID_11_" node-id="99" spreadMethod="pad" x1="283.1886" x2="515.518" y1="829.2429" y2="829.2429"><stop offset="0" stop-color="#c7d3dd"></stop><stop offset="1" stop-color="#b6c4ce"></stop></linearGradient><linearGradient gradientUnits="objectBoundingBox" id="SVGID_12_" node-id="103" spreadMethod="pad" x1="283.1886" x2="732.1259" y1="908.6539" y2="908.6539"><stop offset="0" stop-color="#c7d3dd"></stop><stop offset="1" stop-color="#b6c4ce"></stop></linearGradient><linearGradient gradientUnits="objectBoundingBox" id="SVGID_13_" node-id="107" spreadMethod="pad" x1="283.1886" x2="732.1259" y1="868.9484" y2="868.9484"><stop offset="0" stop-color="#c7d3dd"></stop><stop offset="1" stop-color="#b6c4ce"></stop></linearGradient><linearGradient gradientUnits="objectBoundingBox" id="SVGID_14_" node-id="111" spreadMethod="pad" x1="283.1886" x2="732.1259" y1="948.3595" y2="948.3595"><stop offset="0" stop-color="#c7d3dd"></stop><stop offset="1" stop-color="#b6c4ce"></stop></linearGradient><linearGradient gradientUnits="objectBoundingBox" id="SVGID_15_" node-id="115" spreadMethod="pad" x1="576.2677" x2="623.0262" y1="225.9536" y2="225.9536"><stop offset="0" stop-color="#c7d3dd"></stop><stop offset="1" stop-color="#b6c4ce"></stop></linearGradient><linearGradient gradientUnits="objectBoundingBox" id="SVGID_16_" node-id="119" spreadMethod="pad" x1="888.9489" x2="931.2667" y1="233.3984" y2="233.3984"><stop offset="0" stop-color="#c7d3dd"></stop><stop offset="1" stop-color="#b6c4ce"></stop></linearGradient><linearGradient gradientUnits="objectBoundingBox" id="SVGID_17_" node-id="123" spreadMethod="pad" x1="999.7065" x2="1024" y1="488.7417" y2="488.7417"><stop offset="0" stop-color="#c7d3dd"></stop><stop offset="1" stop-color="#b6c4ce"></stop></linearGradient><linearGradient gradientUnits="objectBoundingBox" id="SVGID_18_" node-id="127" spreadMethod="pad" x1="124.6171" x2="163.2778" y1="180.8931" y2="180.8931"><stop offset="0" stop-color="#c7d3dd"></stop><stop offset="1" stop-color="#b6c4ce"></stop></linearGradient><linearGradient gradientUnits="objectBoundingBox" id="SVGID_19_" node-id="131" spreadMethod="pad" x1="-1.8137" x2="48.3407" y1="451.5177" y2="451.5177"><stop offset="0" stop-color="#c7d3dd"></stop><stop offset="1" stop-color="#b6c4ce"></stop></linearGradient><linearGradient gradientUnits="objectBoundingBox" id="SVGID_20_" node-id="135" spreadMethod="pad" x1="54.8712" x2="72.373" y1="426.3099" y2="426.3099"><stop offset="0" stop-color="#c7d3dd"></stop><stop offset="1" stop-color="#b6c4ce"></stop></linearGradient><linearGradient gradientUnits="objectBoundingBox" id="SVGID_21_" node-id="139" spreadMethod="pad" x1="198.2814" x2="224.1422" y1="332.5317" y2="332.5317"><stop offset="0" stop-color="#c7d3dd"></stop><stop offset="1" stop-color="#b6c4ce"></stop></linearGradient><linearGradient gradientUnits="objectBoundingBox" id="SVGID_22_" node-id="143" spreadMethod="pad" x1="432.3351" x2="458.196" y1="317.9033" y2="317.9033"><stop offset="0" stop-color="#c7d3dd"></stop><stop offset="1" stop-color="#b6c4ce"></stop></linearGradient><linearGradient gradientUnits="objectBoundingBox" id="SVGID_23_" node-id="147" spreadMethod="pad" x1="624.5936" x2="643.9239" y1="266.5735" y2="266.5735"><stop offset="0" stop-color="#c7d3dd"></stop><stop offset="1" stop-color="#b6c4ce"></stop></linearGradient><clipPath id="SVGID_6_" node-id="65"><path d="M 949.00 497.80 L 948.80 512.30 L 948.00 526.70 L 946.90 540.90 L 945.20 555.10 L 943.10 569.20 L 940.60 583.20 L 937.50 597.10 L 934.10 610.90 L 930.20 624.50 L 925.80 638.00 L 921.10 651.30 L 915.80 664.50 L 910.20 677.60 L 904.10 690.40 L 897.70 702.90 L 890.80 715.30 L 883.50 727.50 L 875.80 739.50 L 867.70 751.20 L 859.20 762.70 L 850.40 773.90 L 841.10 784.80 L 831.50 795.50 L 821.40 805.90 L 811.00 816.00 L 800.30 825.60 L 789.40 834.90 L 778.20 843.70 L 766.70 852.20 L 755.00 860.30 L 743.00 868.00 L 730.80 875.30 L 718.40 882.20 L 705.90 888.60 L 693.10 894.70 L 680.00 900.30 L 666.80 905.60 L 653.50 910.30 L 640.00 914.70 L 626.40 918.60 L 612.60 922.00 L 598.70 925.10 L 584.70 927.60 L 570.60 929.70 L 556.40 931.40 L 542.20 932.50 L 527.80 933.30 L 513.30 933.50 L 498.80 933.30 L 484.40 932.50 L 470.20 931.40 L 456.00 929.70 L 441.90 927.60 L 427.90 925.10 L 414.00 922.00 L 400.20 918.60 L 386.60 914.70 L 373.10 910.30 L 359.80 905.60 L 346.60 900.30 L 333.50 894.70 L 320.70 888.60 L 308.20 882.20 L 295.80 875.30 L 283.60 868.00 L 271.60 860.30 L 259.90 852.20 L 248.40 843.70 L 237.20 834.90 L 226.30 825.60 L 215.60 816.00 L 205.20 805.90 L 195.10 795.50 L 185.50 784.80 L 176.20 773.90 L 167.40 762.70 L 158.90 751.20 L 150.80 739.50 L 143.10 727.50 L 135.80 715.30 L 128.90 702.90 L 122.50 690.40 L 116.40 677.60 L 110.80 664.50 L 105.50 651.30 L 100.80 638.00 L 96.40 624.50 L 92.50 610.90 L 89.10 597.10 L 86.00 583.20 L 83.50 569.20 L 81.40 555.10 L 79.70 540.90 L 78.60 526.70 L 77.80 512.30 L 77.60 497.80 L 77.80 483.30 L 78.60 468.90 L 79.70 454.70 L 81.40 440.50 L 83.50 426.40 L 86.00 412.40 L 89.10 398.50 L 92.50 384.70 L 96.40 371.10 L 100.80 357.60 L 105.50 344.30 L 110.80 331.10 L 116.40 318.00 L 122.50 305.20 L 128.90 292.70 L 135.80 280.30 L 143.10 268.10 L 150.80 256.10 L 158.90 244.40 L 167.40 232.90 L 176.20 221.70 L 185.50 210.80 L 195.10 200.10 L 205.20 189.70 L 215.60 179.60 L 226.30 170.00 L 237.20 160.70 L 248.40 151.90 L 259.90 143.40 L 271.60 135.30 L 283.60 127.60 L 295.80 120.30 L 308.20 113.40 L 320.70 107.00 L 333.50 100.90 L 346.60 95.30 L 359.80 90.00 L 373.10 85.30 L 386.60 80.90 L 400.20 77.00 L 414.00 73.60 L 427.90 70.50 L 441.90 68.00 L 456.00 65.90 L 470.20 64.20 L 484.40 63.10 L 498.80 62.30 L 513.30 62.10 L 527.80 62.30 L 542.20 63.10 L 556.40 64.20 L 570.60 65.90 L 584.70 68.00 L 598.70 70.50 L 612.60 73.60 L 626.40 77.00 L 640.00 80.90 L 653.50 85.30 L 666.80 90.00 L 680.00 95.30 L 693.10 100.90 L 705.90 107.00 L 718.40 113.40 L 730.80 120.30 L 743.00 127.60 L 755.00 135.30 L 766.70 143.40 L 778.20 151.90 L 789.40 160.70 L 800.30 170.00 L 811.00 179.60 L 821.40 189.70 L 831.50 200.10 L 841.10 210.80 L 850.40 221.70 L 859.20 232.90 L 867.70 244.40 L 875.80 256.10 L 883.50 268.10 L 890.80 280.30 L 897.70 292.70 L 904.10 305.20 L 910.20 318.00 L 915.80 331.10 L 921.10 344.30 L 925.80 357.60 L 930.20 371.10 L 934.10 384.70 L 937.50 398.50 L 940.60 412.40 L 943.10 426.40 L 945.20 440.50 L 946.90 454.70 L 948.00 468.90 L 948.80 483.30 L 949.00 497.80 Z" fill="#000000" fill-rule="nonzero" node-id="281" stroke="none" target-height="871.4" target-width="871.4" target-x="77.6" target-y="62.1"></path></clipPath></defs><path d="M 949.00 497.80 L 948.80 512.30 L 948.00 526.70 L 946.90 540.90 L 945.20 555.10 L 943.10 569.20 L 940.60 583.20 L 937.50 597.10 L 934.10 610.90 L 930.20 624.50 L 925.80 638.00 L 921.10 651.30 L 915.80 664.50 L 910.20 677.60 L 904.10 690.40 L 897.70 702.90 L 890.80 715.30 L 883.50 727.50 L 875.80 739.50 L 867.70 751.20 L 859.20 762.70 L 850.40 773.90 L 841.10 784.80 L 831.50 795.50 L 821.40 805.90 L 811.00 816.00 L 800.30 825.60 L 789.40 834.90 L 778.20 843.70 L 766.70 852.20 L 755.00 860.30 L 743.00 868.00 L 730.80 875.30 L 718.40 882.20 L 705.90 888.60 L 693.10 894.70 L 680.00 900.30 L 666.80 905.60 L 653.50 910.30 L 640.00 914.70 L 626.40 918.60 L 612.60 922.00 L 598.70 925.10 L 584.70 927.60 L 570.60 929.70 L 556.40 931.40 L 542.20 932.50 L 527.80 933.30 L 513.30 933.50 L 498.80 933.30 L 484.40 932.50 L 470.20 931.40 L 456.00 929.70 L 441.90 927.60 L 427.90 925.10 L 414.00 922.00 L 400.20 918.60 L 386.60 914.70 L 373.10 910.30 L 359.80 905.60 L 346.60 900.30 L 333.50 894.70 L 320.70 888.60 L 308.20 882.20 L 295.80 875.30 L 283.60 868.00 L 271.60 860.30 L 259.90 852.20 L 248.40 843.70 L 237.20 834.90 L 226.30 825.60 L 215.60 816.00 L 205.20 805.90 L 195.10 795.50 L 185.50 784.80 L 176.20 773.90 L 167.40 762.70 L 158.90 751.20 L 150.80 739.50 L 143.10 727.50 L 135.80 715.30 L 128.90 702.90 L 122.50 690.40 L 116.40 677.60 L 110.80 664.50 L 105.50 651.30 L 100.80 638.00 L 96.40 624.50 L 92.50 610.90 L 89.10 597.10 L 86.00 583.20 L 83.50 569.20 L 81.40 555.10 L 79.70 540.90 L 78.60 526.70 L 77.80 512.30 L 77.60 497.80 L 77.80 483.30 L 78.60 468.90 L 79.70 454.70 L 81.40 440.50 L 83.50 426.40 L 86.00 412.40 L 89.10 398.50 L 92.50 384.70 L 96.40 371.10 L 100.80 357.60 L 105.50 344.30 L 110.80 331.10 L 116.40 318.00 L 122.50 305.20 L 128.90 292.70 L 135.80 280.30 L 143.10 268.10 L 150.80 256.10 L 158.90 244.40 L 167.40 232.90 L 176.20 221.70 L 185.50 210.80 L 195.10 200.10 L 205.20 189.70 L 215.60 179.60 L 226.30 170.00 L 237.20 160.70 L 248.40 151.90 L 259.90 143.40 L 271.60 135.30 L 283.60 127.60 L 295.80 120.30 L 308.20 113.40 L 320.70 107.00 L 333.50 100.90 L 346.60 95.30 L 359.80 90.00 L 373.10 85.30 L 386.60 80.90 L 400.20 77.00 L 414.00 73.60 L 427.90 70.50 L 441.90 68.00 L 456.00 65.90 L 470.20 64.20 L 484.40 63.10 L 498.80 62.30 L 513.30 62.10 L 527.80 62.30 L 542.20 63.10 L 556.40 64.20 L 570.60 65.90 L 584.70 68.00 L 598.70 70.50 L 612.60 73.60 L 626.40 77.00 L 640.00 80.90 L 653.50 85.30 L 666.80 90.00 L 680.00 95.30 L 693.10 100.90 L 705.90 107.00 L 718.40 113.40 L 730.80 120.30 L 743.00 127.60 L 755.00 135.30 L 766.70 143.40 L 778.20 151.90 L 789.40 160.70 L 800.30 170.00 L 811.00 179.60 L 821.40 189.70 L 831.50 200.10 L 841.10 210.80 L 850.40 221.70 L 859.20 232.90 L 867.70 244.40 L 875.80 256.10 L 883.50 268.10 L 890.80 280.30 L 897.70 292.70 L 904.10 305.20 L 910.20 318.00 L 915.80 331.10 L 921.10 344.30 L 925.80 357.60 L 930.20 371.10 L 934.10 384.70 L 937.50 398.50 L 940.60 412.40 L 943.10 426.40 L 945.20 440.50 L 946.90 454.70 L 948.00 468.90 L 948.80 483.30 L 949.00 497.80 Z" fill="url(#SVGID_1_)" fill-rule="nonzero" node-id="287" stroke="none" target-height="871.4" target-width="871.4" target-x="77.6" target-y="62.1"></path><path d="M 258.10 796.50 L 257.80 794.40 L 257.10 792.50 L 255.90 790.70 L 253.60 788.50 L 250.80 786.80 L 247.90 785.50 L 243.50 784.60 L 241.40 785.10 L 239.80 787.10 L 237.90 792.50 L 236.40 801.30 L 236.10 806.20 L 228.10 794.40 L 219.60 783.10 L 223.30 780.00 L 228.20 774.80 L 230.30 771.60 L 231.80 768.20 L 232.40 765.90 L 232.50 763.50 L 232.00 761.10 L 231.10 759.10 L 229.90 757.50 L 228.40 756.40 L 225.00 754.90 L 220.10 754.60 L 214.40 755.60 L 212.20 756.30 L 209.70 757.80 L 209.10 759.10 L 208.70 761.20 L 208.80 763.50 L 209.50 766.80 L 210.70 770.30 L 213.00 774.80 L 204.80 765.00 L 196.50 755.80 L 200.50 752.80 L 205.30 748.30 L 207.40 745.50 L 209.20 742.40 L 210.60 738.00 L 210.70 735.60 L 210.40 733.30 L 209.60 731.50 L 208.60 730.00 L 207.20 728.80 L 203.70 727.30 L 200.80 726.80 L 197.70 726.80 L 194.70 727.20 L 192.10 728.00 L 189.80 729.20 L 188.40 730.40 L 187.80 731.60 L 187.40 733.30 L 187.90 739.00 L 188.90 743.00 L 191.60 750.50 L 171.90 730.70 L 176.30 726.60 L 181.60 720.70 L 184.10 717.40 L 186.00 714.00 L 187.00 711.70 L 187.70 707.50 L 187.30 705.60 L 186.30 703.90 L 184.60 702.30 L 181.50 700.40 L 178.70 699.20 L 173.50 698.10 L 169.10 698.40 L 166.10 699.30 L 164.00 700.40 L 162.30 701.80 L 161.50 702.80 L 160.90 704.50 L 160.80 709.00 L 161.40 712.80 L 162.50 717.00 L 165.90 725.10 L 144.20 706.00 L 148.80 701.50 L 154.40 694.90 L 156.90 691.10 L 159.00 687.30 L 160.00 684.70 L 160.50 682.20 L 160.60 679.80 L 159.70 676.60 L 157.20 673.60 L 153.80 671.30 L 150.90 669.90 L 148.40 669.30 L 145.80 669.10 L 143.50 669.40 L 141.50 670.20 L 139.60 671.40 L 138.10 672.70 L 136.00 676.00 L 135.20 679.20 L 135.80 684.00 L 137.40 690.60 L 141.30 703.60 L 133.40 697.10 L 120.40 687.20 L 120.20 671.50 L 119.20 661.50 L 117.20 652.60 L 116.10 650.00 L 113.80 646.40 L 112.00 645.10 L 109.90 644.30 L 107.50 644.10 L 102.40 645.20 L 99.70 646.40 L 94.70 649.60 L 90.40 654.00 L 87.70 658.70 L 87.00 661.30 L 86.90 663.70 L 87.50 666.10 L 88.80 668.80 L 92.60 673.90 L 96.20 677.30 L 100.30 680.50 L 104.70 683.20 L 109.30 685.50 L 118.20 688.90 L 117.90 689.30 L 131.70 699.90 L 121.90 697.60 L 114.80 697.10 L 109.60 697.90 L 106.50 699.80 L 105.30 701.40 L 104.70 703.10 L 104.50 704.90 L 105.20 708.80 L 107.80 713.90 L 109.80 716.70 L 114.10 721.30 L 117.30 723.70 L 118.50 723.90 L 120.00 723.70 L 122.10 722.90 L 123.90 721.60 L 128.60 716.60 L 130.90 713.30 L 136.00 703.40 L 147.00 712.60 L 159.70 723.80 L 147.20 723.10 L 140.10 723.40 L 134.30 724.60 L 131.90 726.20 L 131.30 727.10 L 130.90 729.30 L 131.00 732.10 L 132.50 738.10 L 135.30 744.00 L 137.10 746.60 L 139.00 748.60 L 141.70 750.20 L 143.00 750.50 L 145.40 750.40 L 147.80 749.80 L 150.70 747.90 L 152.30 746.30 L 154.40 743.30 L 156.80 738.60 L 161.80 725.60 L 181.00 744.10 L 170.90 743.10 L 164.40 743.60 L 160.00 745.00 L 158.10 746.10 L 156.80 747.60 L 155.90 749.40 L 155.50 751.50 L 155.80 755.80 L 156.80 758.90 L 158.40 762.00 L 160.40 764.80 L 162.60 767.20 L 165.00 769.30 L 167.30 770.60 L 170.40 771.50 L 173.40 770.80 L 175.10 769.90 L 176.60 768.50 L 179.00 764.30 L 180.20 760.80 L 181.70 755.10 L 183.30 746.40 L 196.80 760.80 L 210.10 776.30 L 197.80 773.80 L 191.30 773.40 L 189.30 773.70 L 186.90 774.80 L 186.00 775.90 L 185.50 777.40 L 185.40 779.20 L 185.80 782.00 L 186.90 785.20 L 188.40 788.30 L 190.50 791.20 L 192.80 793.70 L 195.30 795.50 L 196.50 795.90 L 197.70 795.90 L 199.00 795.40 L 200.90 794.20 L 204.80 789.90 L 209.60 782.20 L 211.60 778.30 L 219.90 788.90 L 227.80 799.90 L 219.30 799.30 L 213.00 799.80 L 208.80 801.10 L 206.70 802.90 L 206.00 804.50 L 205.80 806.30 L 205.90 808.50 L 206.70 811.60 L 208.10 814.90 L 210.00 817.80 L 212.20 820.20 L 213.90 821.50 L 215.50 822.20 L 217.10 822.50 L 218.30 822.30 L 219.60 821.60 L 221.00 820.40 L 222.80 818.00 L 224.70 815.00 L 227.70 808.50 L 229.80 802.90 L 236.40 813.00 L 242.50 823.40 L 248.20 834.00 L 253.20 844.80 L 256.10 843.60 L 247.80 826.50 L 238.20 809.90 L 247.10 806.80 L 253.50 803.40 L 255.90 801.30 L 257.10 799.80 L 257.80 798.20 L 258.10 796.50 Z" fill="url(#SVGID_2_)" fill-rule="nonzero" node-id="289" stroke="none" target-height="200.70001" target-width="171.20001" target-x="86.9" target-y="644.1"></path><path d="M 693.70 769.10 L 693.60 765.90 L 693.90 762.90 L 694.70 759.90 L 697.50 754.50 L 699.40 752.00 L 702.70 748.50 L 706.30 745.50 L 710.20 743.00 L 714.10 741.00 L 717.90 739.50 L 721.20 738.70 L 725.00 738.50 L 726.30 738.90 L 727.80 739.80 L 729.40 741.50 L 731.30 744.00 L 733.80 748.40 L 736.50 754.10 L 738.80 760.40 L 741.10 767.70 L 743.00 775.20 L 744.60 783.10 L 753.60 764.20 L 763.00 745.70 L 772.90 727.50 L 763.90 722.00 L 755.70 715.90 L 751.60 712.20 L 747.70 708.10 L 744.30 703.70 L 740.70 697.40 L 739.50 694.10 L 738.70 690.70 L 738.50 687.20 L 738.80 683.60 L 739.60 680.50 L 740.60 677.90 L 743.50 673.60 L 746.00 671.20 L 748.90 669.30 L 752.10 667.80 L 759.00 666.00 L 768.10 665.30 L 773.10 665.60 L 781.70 667.10 L 784.90 668.30 L 786.30 669.20 L 787.60 670.80 L 788.70 673.00 L 789.60 676.10 L 790.10 679.30 L 790.20 683.40 L 789.70 688.60 L 788.80 693.70 L 787.10 699.90 L 784.60 707.30 L 794.40 691.30 L 814.20 660.60 L 806.70 656.70 L 802.20 654.10 L 797.40 650.80 L 792.60 647.10 L 788.10 642.90 L 785.30 639.80 L 780.60 633.10 L 778.90 629.40 L 777.60 625.50 L 776.80 621.40 L 776.70 618.10 L 776.90 615.20 L 777.60 612.60 L 778.60 610.30 L 780.40 607.40 L 782.70 605.00 L 785.50 602.90 L 788.60 601.30 L 791.90 599.90 L 795.50 599.00 L 802.90 597.90 L 810.30 598.10 L 816.60 599.40 L 819.60 600.40 L 823.60 602.90 L 825.00 604.70 L 826.20 607.10 L 827.00 610.30 L 827.60 617.40 L 826.90 628.00 L 825.90 634.80 L 823.10 647.60 L 841.40 622.10 L 859.50 598.20 L 847.90 590.10 L 838.10 582.30 L 828.70 573.20 L 824.70 568.40 L 822.40 565.10 L 819.00 558.70 L 818.00 555.40 L 817.60 552.20 L 817.80 549.10 L 818.40 546.90 L 819.30 544.80 L 820.70 542.60 L 822.70 540.40 L 829.90 534.50 L 836.50 530.70 L 841.10 528.80 L 845.40 527.60 L 849.40 527.00 L 853.50 526.80 L 860.50 527.50 L 866.50 529.30 L 868.80 530.40 L 872.30 533.00 L 874.60 536.60 L 875.70 539.70 L 876.40 543.40 L 876.90 551.40 L 875.90 562.80 L 874.60 570.00 L 872.90 577.10 L 870.80 583.90 L 892.20 557.90 L 911.70 535.30 L 899.40 526.20 L 889.10 517.40 L 884.00 512.40 L 879.20 507.10 L 875.00 501.70 L 872.50 497.90 L 869.00 490.50 L 867.90 486.70 L 867.50 483.00 L 867.70 479.40 L 868.30 476.80 L 869.30 474.20 L 870.90 471.70 L 872.90 469.10 L 877.20 464.90 L 881.20 461.70 L 884.90 459.30 L 888.90 457.40 L 892.60 456.20 L 896.10 455.60 L 899.60 455.50 L 902.90 455.80 L 906.00 456.60 L 908.90 457.80 L 914.00 460.90 L 918.10 465.00 L 919.70 467.20 L 921.90 471.90 L 922.50 474.10 L 922.80 477.40 L 922.90 482.20 L 922.10 493.40 L 920.70 506.10 L 917.20 529.10 L 935.90 508.70 L 957.40 486.70 L 955.60 475.30 L 952.70 450.70 L 951.80 432.20 L 951.90 423.40 L 952.90 412.20 L 953.70 407.40 L 955.00 402.70 L 956.60 398.90 L 958.40 395.80 L 960.20 393.80 L 962.20 392.10 L 964.40 390.80 L 967.00 389.80 L 970.50 388.90 L 974.40 388.60 L 978.60 388.80 L 982.90 389.40 L 987.20 390.50 L 996.10 393.90 L 1004.30 398.70 L 1008.20 401.50 L 1014.80 407.80 L 1017.50 411.30 L 1019.70 414.90 L 1021.30 418.50 L 1022.10 421.40 L 1022.50 424.30 L 1022.40 427.20 L 1022.00 430.10 L 1020.50 435.10 L 1018.40 440.10 L 1015.70 445.10 L 1012.70 449.90 L 1009.20 454.50 L 1005.20 459.10 L 996.60 467.60 L 991.90 471.50 L 984.60 477.00 L 977.30 481.90 L 969.80 486.20 L 962.70 489.70 L 963.40 490.40 L 950.70 503.20 L 936.80 517.90 L 947.00 513.40 L 952.70 511.20 L 965.00 507.60 L 971.00 506.50 L 978.80 506.00 L 982.30 506.20 L 985.80 506.90 L 988.80 508.00 L 991.50 509.60 L 993.60 511.40 L 995.20 513.40 L 996.40 515.60 L 997.20 518.00 L 997.70 521.40 L 997.70 525.00 L 997.20 528.90 L 996.20 532.80 L 993.20 540.70 L 990.30 546.40 L 987.20 551.70 L 980.80 560.30 L 977.80 563.50 L 975.80 565.00 L 973.90 565.80 L 971.50 566.00 L 968.50 565.70 L 965.50 564.80 L 961.90 563.20 L 957.60 560.60 L 953.60 557.60 L 949.10 553.50 L 944.00 548.10 L 939.40 542.50 L 934.20 535.50 L 928.60 526.90 L 907.70 550.50 L 883.80 578.90 L 905.60 574.20 L 918.80 572.30 L 925.30 571.70 L 931.20 571.60 L 938.30 572.20 L 941.10 572.90 L 943.70 574.00 L 945.50 575.30 L 946.70 576.90 L 948.40 582.10 L 948.90 585.50 L 949.00 590.70 L 948.50 596.50 L 947.50 602.40 L 946.00 608.30 L 944.00 614.00 L 941.60 619.20 L 937.80 625.20 L 935.80 627.50 L 933.50 629.50 L 931.20 630.90 L 928.80 631.70 L 925.90 632.20 L 920.30 632.10 L 917.60 631.60 L 914.80 630.50 L 911.80 628.90 L 909.00 627.00 L 906.00 624.30 L 902.60 620.70 L 896.00 612.10 L 892.20 606.10 L 886.60 596.40 L 879.90 583.70 L 862.30 606.10 L 844.10 630.30 L 852.40 627.80 L 863.00 625.40 L 874.30 623.90 L 880.00 623.80 L 885.20 624.20 L 888.60 624.90 L 891.60 625.90 L 894.30 627.20 L 896.70 628.90 L 898.70 631.10 L 900.30 633.70 L 901.70 637.40 L 902.50 641.20 L 902.70 645.20 L 902.50 649.20 L 901.90 653.20 L 899.40 661.20 L 897.70 665.00 L 893.40 672.20 L 888.60 678.20 L 885.90 680.80 L 880.80 684.60 L 878.00 685.90 L 875.60 686.60 L 873.30 686.70 L 870.10 686.20 L 867.10 685.30 L 864.20 683.90 L 861.70 682.00 L 859.10 679.30 L 856.30 675.70 L 851.40 666.90 L 848.50 660.40 L 844.50 650.10 L 839.80 636.20 L 827.50 653.60 L 815.20 671.80 L 803.10 690.50 L 791.20 710.00 L 811.20 702.40 L 823.10 699.10 L 828.80 698.00 L 833.60 697.60 L 836.80 697.70 L 839.20 698.30 L 841.10 699.20 L 843.80 702.00 L 845.40 706.00 L 845.90 709.00 L 846.00 712.40 L 845.70 716.10 L 844.10 723.80 L 842.70 727.70 L 841.10 731.60 L 837.10 738.60 L 834.70 741.90 L 832.10 744.60 L 829.50 746.90 L 828.00 747.80 L 824.70 748.50 L 822.90 748.30 L 817.90 746.40 L 815.10 744.60 L 811.20 741.60 L 803.20 733.70 L 793.00 721.20 L 788.40 714.80 L 778.60 731.90 L 769.20 749.30 L 760.10 767.10 L 774.20 763.80 L 785.40 762.20 L 790.80 761.90 L 794.30 762.00 L 800.40 762.90 L 803.10 763.90 L 805.20 765.10 L 806.90 766.70 L 808.50 769.30 L 809.70 772.30 L 810.30 775.80 L 810.50 779.40 L 810.20 783.20 L 809.50 787.30 L 808.40 791.30 L 805.40 798.80 L 803.30 802.40 L 801.10 805.50 L 798.80 808.10 L 796.10 810.40 L 793.40 811.90 L 790.60 812.80 L 788.90 812.90 L 785.30 811.90 L 780.80 808.90 L 775.60 803.60 L 768.10 793.70 L 761.60 783.20 L 756.70 774.30 L 749.20 790.40 L 742.30 806.70 L 735.70 823.10 L 729.70 839.60 L 724.30 856.30 L 719.50 873.00 L 712.80 871.20 L 720.70 844.60 L 725.30 831.40 L 735.40 805.10 L 740.90 792.10 L 731.20 790.50 L 719.30 787.70 L 713.20 785.70 L 707.50 783.30 L 703.90 781.40 L 698.20 777.20 L 696.50 775.40 L 695.20 773.40 L 693.70 769.10 Z" fill="url(#SVGID_3_)" fill-rule="nonzero" node-id="291" stroke="none" target-height="484.4" target-width="328.90002" target-x="693.6" target-y="388.6"></path><g node-id="474"><path d="M 163.80 422.00 L 161.90 422.30 L 160.30 423.10 L 159.10 424.40 L 158.30 426.00 L 158.10 427.80 L 161.20 438.70 L 162.30 447.20 L 162.50 458.10 L 162.10 464.40 L 161.10 471.60 L 159.70 478.70 L 157.60 486.70 L 152.50 503.20 L 150.60 510.80 L 149.00 518.60 L 147.90 526.50 L 147.10 534.50 L 146.80 542.50 L 146.80 550.70 L 147.30 558.90 L 148.20 567.10 L 149.50 575.30 L 151.20 583.50 L 153.30 591.70 L 155.80 599.80 L 158.80 607.80 L 162.20 615.70 L 166.10 623.50 L 170.30 631.10 L 175.00 638.60 L 180.10 645.90 L 189.10 657.50 L 192.40 662.30 L 198.30 673.10 L 201.70 680.70 L 204.90 688.80 L 207.80 697.40 L 211.60 710.60 L 215.00 724.30 L 226.70 779.10 L 229.70 791.90 L 233.00 803.60 L 235.50 811.20 L 238.10 818.00 L 240.90 824.00 L 245.90 832.30 L 251.40 838.60 L 278.90 863.60 L 290.10 873.40 L 292.20 847.10 L 293.90 831.80 L 296.20 816.30 L 297.60 808.90 L 300.70 797.10 L 308.10 776.20 L 310.60 768.30 L 312.80 759.60 L 315.00 747.60 L 315.50 741.20 L 315.70 734.70 L 315.40 728.00 L 314.60 721.10 L 313.20 714.20 L 311.20 707.10 L 308.30 699.80 L 302.90 689.00 L 299.30 683.30 L 295.20 677.50 L 261.70 633.80 L 255.30 624.70 L 250.10 616.50 L 244.50 605.40 L 242.40 600.10 L 240.80 594.60 L 239.60 589.00 L 238.90 583.10 L 238.70 577.30 L 239.00 570.90 L 240.20 559.30 L 240.10 553.80 L 239.40 547.20 L 236.60 533.80 L 234.50 526.10 L 229.20 510.80 L 220.70 490.90 L 214.90 479.20 L 208.60 467.80 L 202.10 457.30 L 197.50 450.60 L 188.70 439.20 L 184.00 434.10 L 179.70 429.90 L 175.60 426.70 L 172.30 424.60 L 169.20 423.20 L 166.40 422.30 L 163.80 422.00 Z" fill="url(#SVGID_4_)" fill-rule="nonzero" group-id="1" node-id="295" stroke="none" target-height="451.40002" target-width="168.90001" target-x="146.8" target-y="422"></path><g node-id="476"><path d="M 159.30 426.20 L 165.30 430.70 L 170.70 435.90 L 177.10 443.60 L 179.90 447.70 L 183.80 454.10 L 187.10 460.90 L 190.00 467.80 L 192.50 474.90 L 194.50 482.10 L 196.80 493.20 L 198.30 504.40 L 198.90 511.90 L 199.90 549.30 L 200.80 564.30 L 202.30 579.10 L 204.40 594.00 L 207.30 608.70 L 211.20 623.10 L 213.60 630.20 L 216.40 637.10 L 219.50 643.80 L 223.00 650.40 L 226.90 656.70 L 231.30 662.70 L 250.20 686.10 L 254.60 692.20 L 258.60 698.50 L 262.30 705.10 L 265.60 711.90 L 268.40 718.90 L 270.70 726.00 L 272.50 733.30 L 273.90 740.70 L 274.80 748.20 L 275.30 763.20 L 274.80 778.20 L 274.80 793.10 L 276.30 815.50 L 277.50 825.40 L 279.10 835.20 L 282.90 852.30 L 287.20 866.60 L 289.90 873.60 L 287.10 866.60 L 282.60 852.30 L 278.60 835.20 L 276.80 825.40 L 275.50 815.50 L 273.90 795.60 L 273.60 778.10 L 274.00 763.10 L 273.90 755.60 L 273.40 748.20 L 272.50 740.80 L 271.10 733.50 L 269.30 726.20 L 267.00 719.10 L 264.20 712.20 L 261.00 705.50 L 257.30 699.00 L 248.90 686.70 L 229.90 663.40 L 225.40 657.30 L 222.40 652.50 L 218.00 644.30 L 214.80 637.40 L 212.00 630.40 L 209.60 623.30 L 205.70 608.80 L 202.80 594.00 L 200.70 579.10 L 199.20 564.20 L 198.30 549.20 L 197.50 511.70 L 197.00 504.30 L 196.20 496.90 L 193.40 482.20 L 191.50 475.00 L 189.10 467.90 L 186.30 461.00 L 183.00 454.30 L 179.30 447.80 L 175.00 441.70 L 170.30 435.90 L 165.20 430.70 L 159.30 426.20 Z" fill="#ffffff" fill-rule="nonzero" group-id="1,3" node-id="299" stroke="none" target-height="447.39996" target-width="130.59999" target-x="159.3" target-y="426.2"></path></g><g node-id="477"><path d="M 198.50 532.00 L 193.30 530.60 L 188.40 528.50 L 179.20 523.30 L 170.80 516.90 L 163.20 509.70 L 171.00 516.70 L 179.60 522.70 L 188.90 527.50 L 193.80 529.30 L 198.70 530.50 L 198.50 532.00 Z" fill="#ffffff" fill-rule="nonzero" group-id="1,4" node-id="304" stroke="none" target-height="22.299988" target-width="35.5" target-x="163.2" target-y="509.7"></path></g><g node-id="478"><path d="M 200.40 570.80 L 194.00 569.40 L 187.90 567.30 L 183.90 565.50 L 176.60 561.20 L 171.50 557.30 L 166.80 552.90 L 162.60 548.10 L 158.90 542.90 L 162.80 548.00 L 167.10 552.70 L 170.20 555.60 L 177.00 560.60 L 180.60 562.80 L 188.30 566.30 L 194.30 568.20 L 200.50 569.30 L 200.40 570.80 Z" fill="#ffffff" fill-rule="nonzero" group-id="1,5" node-id="309" stroke="none" target-height="27.899963" target-width="41.600006" target-x="158.9" target-y="542.9"></path></g><g node-id="479"><path d="M 206.80 609.40 L 200.40 608.00 L 194.30 605.90 L 190.30 604.10 L 183.00 599.80 L 177.90 595.90 L 173.20 591.50 L 169.00 586.70 L 165.30 581.50 L 169.20 586.60 L 173.50 591.30 L 176.60 594.20 L 183.40 599.20 L 187.00 601.40 L 194.70 604.90 L 200.70 606.80 L 206.90 607.90 L 206.80 609.40 Z" fill="#ffffff" fill-rule="nonzero" group-id="1,6" node-id="314" stroke="none" target-height="27.900024" target-width="41.59999" target-x="165.3" target-y="581.5"></path></g><g node-id="480"><path d="M 219.20 645.40 L 215.80 644.60 L 209.60 642.20 L 205.20 639.90 L 201.00 637.10 L 197.10 634.00 L 193.60 630.50 L 187.50 622.70 L 190.50 626.60 L 193.90 630.20 L 201.50 636.50 L 205.70 639.10 L 210.10 641.20 L 214.70 642.90 L 219.40 643.90 L 219.20 645.40 Z" fill="#ffffff" fill-rule="nonzero" group-id="1,7" node-id="319" stroke="none" target-height="22.700012" target-width="31.899994" target-x="187.5" target-y="622.7"></path></g><g node-id="481"><path d="M 232.30 665.70 L 227.90 665.50 L 223.50 664.80 L 215.10 662.40 L 208.20 659.20 L 203.70 656.10 L 200.50 653.20 L 203.90 655.90 L 207.50 658.30 L 211.30 660.20 L 219.40 662.90 L 223.70 663.70 L 232.20 664.20 L 232.30 665.70 Z" fill="#ffffff" fill-rule="nonzero" group-id="1,8" node-id="324" stroke="none" target-height="12.5" target-width="31.800003" target-x="200.5" target-y="653.2"></path></g><g node-id="482"><path d="M 247.40 683.90 L 243.00 683.70 L 238.60 683.00 L 230.20 680.60 L 223.30 677.40 L 218.80 674.30 L 215.60 671.40 L 219.00 674.10 L 222.60 676.50 L 226.40 678.40 L 234.50 681.10 L 238.80 681.90 L 247.30 682.40 L 247.40 683.90 Z" fill="#ffffff" fill-rule="nonzero" group-id="1,9" node-id="329" stroke="none" target-height="12.5" target-width="31.799988" target-x="215.6" target-y="671.4"></path></g><g node-id="483"><path d="M 263.20 709.50 L 252.90 709.00 L 242.80 707.10 L 237.90 705.50 L 233.20 703.50 L 227.50 699.80 L 224.90 697.60 L 230.40 701.50 L 233.40 703.10 L 238.10 704.90 L 243.00 706.30 L 253.00 707.80 L 263.10 707.90 L 263.20 709.50 Z" fill="#ffffff" fill-rule="nonzero" group-id="1,10" node-id="334" stroke="none" target-height="11.900024" target-width="38.30002" target-x="224.9" target-y="697.6"></path></g><g node-id="484"><path d="M 272.30 735.30 L 262.00 734.80 L 251.90 732.90 L 247.00 731.30 L 242.30 729.30 L 236.60 725.60 L 234.00 723.40 L 239.50 727.30 L 242.50 728.90 L 247.20 730.70 L 252.10 732.10 L 262.10 733.60 L 272.20 733.70 L 272.30 735.30 Z" fill="#ffffff" fill-rule="nonzero" group-id="1,11" node-id="339" stroke="none" target-height="11.899963" target-width="38.299988" target-x="234" target-y="723.4"></path></g><g node-id="485"><path d="M 274.80 761.10 L 264.50 760.60 L 254.40 758.70 L 249.50 757.10 L 244.80 755.10 L 239.10 751.40 L 236.50 749.20 L 242.00 753.10 L 245.00 754.70 L 249.70 756.50 L 254.60 757.90 L 264.60 759.40 L 274.70 759.50 L 274.80 761.10 Z" fill="#ffffff" fill-rule="nonzero" group-id="1,12" node-id="344" stroke="none" target-height="11.899963" target-width="38.299988" target-x="236.5" target-y="749.2"></path></g><g node-id="486"><path d="M 274.30 793.20 L 264.30 790.80 L 254.80 787.10 L 250.30 784.60 L 246.10 781.80 L 243.50 779.60 L 239.00 774.50 L 243.70 779.40 L 246.30 781.50 L 250.60 784.20 L 255.10 786.40 L 259.80 788.20 L 269.60 790.90 L 274.60 791.70 L 274.30 793.20 Z" fill="#ffffff" fill-rule="nonzero" group-id="1,13" node-id="349" stroke="none" target-height="18.700012" target-width="35.600006" target-x="239" target-y="774.5"></path></g><g node-id="487"><path d="M 199.20 550.30 L 202.80 546.70 L 206.10 542.60 L 211.60 533.70 L 215.80 524.10 L 218.90 514.00 L 216.10 524.10 L 214.30 529.10 L 209.80 538.60 L 207.00 543.10 L 202.10 549.40 L 200.20 551.30 L 199.20 550.30 Z" fill="#ffffff" fill-rule="nonzero" group-id="1,14" node-id="354" stroke="none" target-height="37.299988" target-width="19.699997" target-x="199.2" target-y="514"></path></g><g node-id="488"><path d="M 203.10 590.50 L 207.80 586.40 L 211.90 581.60 L 214.40 578.20 L 218.60 570.90 L 221.80 563.10 L 223.00 559.00 L 224.30 552.80 L 225.00 546.40 L 224.50 552.80 L 223.40 559.10 L 222.30 563.20 L 221.00 567.30 L 217.40 575.00 L 212.80 582.30 L 208.70 587.30 L 203.90 591.70 L 203.10 590.50 Z" fill="#ffffff" fill-rule="nonzero" group-id="1,15" node-id="359" stroke="none" target-height="45.299988" target-width="21.899994" target-x="203.1" target-y="546.4"></path></g><g node-id="489"><path d="M 212.60 629.40 L 216.40 626.30 L 219.90 622.90 L 223.10 619.20 L 226.00 615.20 L 228.50 611.00 L 230.60 606.50 L 232.20 601.80 L 233.40 597.00 L 232.40 601.90 L 231.00 606.60 L 229.10 611.20 L 226.70 615.60 L 223.90 619.80 L 220.80 623.70 L 217.30 627.30 L 213.50 630.70 L 212.60 629.40 Z" fill="#ffffff" fill-rule="nonzero" group-id="1,16" node-id="364" stroke="none" target-height="33.700012" target-width="20.799988" target-x="212.6" target-y="597"></path></g><g node-id="490"><path d="M 226.30 656.70 L 229.40 653.70 L 232.30 650.30 L 234.80 646.60 L 236.90 642.70 L 238.60 638.60 L 240.00 634.30 L 241.60 625.50 L 241.20 630.00 L 240.40 634.40 L 237.70 643.00 L 235.70 647.10 L 233.30 650.90 L 230.60 654.50 L 227.30 657.80 L 226.30 656.70 Z" fill="#ffffff" fill-rule="nonzero" group-id="1,17" node-id="369" stroke="none" target-height="32.299988" target-width="15.300003" target-x="226.3" target-y="625.5"></path></g><g node-id="491"><path d="M 240.30 674.00 L 247.30 669.20 L 250.50 666.30 L 253.40 663.20 L 257.90 657.10 L 260.30 652.30 L 261.80 648.20 L 259.70 654.40 L 256.60 660.10 L 254.10 663.70 L 251.20 667.10 L 244.70 672.90 L 241.00 675.40 L 240.30 674.00 Z" fill="#ffffff" fill-rule="nonzero" group-id="1,18" node-id="374" stroke="none" target-height="27.200012" target-width="21.499985" target-x="240.3" target-y="648.2"></path></g><g node-id="492"><path d="M 258.70 701.20 L 263.70 694.30 L 265.70 690.50 L 267.40 686.50 L 268.70 682.40 L 269.60 678.10 L 270.10 669.50 L 270.30 673.80 L 269.90 679.30 L 268.10 686.80 L 266.60 690.90 L 262.50 698.70 L 259.90 702.30 L 258.70 701.20 Z" fill="#ffffff" fill-rule="nonzero" group-id="1,19" node-id="379" stroke="none" target-height="32.799988" target-width="11.599976" target-x="258.7" target-y="669.5"></path></g><g node-id="493"><path d="M 269.50 725.40 L 272.60 721.50 L 275.50 717.30 L 280.40 708.50 L 282.30 703.80 L 283.70 698.90 L 284.50 692.20 L 284.40 688.80 L 284.50 695.60 L 284.00 699.00 L 282.70 704.00 L 281.10 708.80 L 276.50 718.00 L 273.70 722.30 L 270.60 726.50 L 269.50 725.40 Z" fill="#ffffff" fill-rule="nonzero" group-id="1,20" node-id="384" stroke="none" target-height="37.700012" target-width="15" target-x="269.5" target-y="688.8"></path></g><g node-id="494"><path d="M 274.20 753.90 L 281.60 747.00 L 288.00 739.20 L 290.70 734.90 L 292.90 730.40 L 294.90 724.00 L 295.40 720.60 L 294.30 727.30 L 293.30 730.60 L 291.20 735.30 L 288.70 739.70 L 285.80 743.90 L 279.00 751.70 L 275.20 755.20 L 274.20 753.90 Z" fill="#ffffff" fill-rule="nonzero" group-id="1,21" node-id="389" stroke="none" target-height="34.600037" target-width="21.199982" target-x="274.2" target-y="720.6"></path></g><path d="M 273.80 782.10 L 282.40 776.80 L 290.20 770.40 L 293.60 766.70 L 296.80 762.70 L 298.60 759.80 L 301.20 753.60 L 300.10 756.80 L 297.10 762.90 L 294.10 767.10 L 290.80 770.90 L 283.10 777.70 L 279.00 780.70 L 274.50 783.40 L 273.80 782.10 Z" fill="#ffffff" fill-rule="nonzero" group-id="1,22" node-id="394" stroke="none" target-height="29.800049" target-width="27.400024" target-x="273.8" target-y="753.6"></path></g><g node-id="475"><g clip-path="url(#SVGID_6_)" group-id="2" node-id="400"><path d="M 766.00 538.50 L 249.30 538.50 L 246.70 538.30 L 244.30 537.60 L 242.10 536.50 L 240.00 535.10 L 238.30 533.40 L 236.90 531.40 L 235.80 529.20 L 235.10 526.70 L 234.90 524.10 L 234.90 364.80 L 235.10 362.20 L 235.80 359.80 L 236.90 357.60 L 238.30 355.50 L 240.00 353.80 L 242.00 352.40 L 244.20 351.30 L 246.70 350.60 L 249.30 350.40 L 766.00 350.40 L 768.60 350.60 L 771.00 351.30 L 773.20 352.40 L 775.30 353.80 L 777.00 355.50 L 778.40 357.50 L 779.50 359.70 L 780.20 362.20 L 780.40 364.80 L 780.40 524.10 L 780.20 526.70 L 779.50 529.20 L 778.40 531.40 L 777.00 533.40 L 775.30 535.10 L 773.20 536.50 L 771.00 537.60 L 768.60 538.30 L 766.00 538.50 Z" fill="#ffffff" fill-rule="nonzero" group-id="2,23,24" node-id="404" stroke="none" target-height="188.1" target-width="545.5" target-x="234.9" target-y="350.4"></path><path d="M 510.50 399.00 L 288.20 399.00 L 286.80 398.80 L 284.70 397.60 L 283.40 395.40 L 283.20 394.00 L 283.40 379.10 L 283.90 378.00 L 285.70 376.20 L 288.20 375.50 L 510.60 375.50 L 513.10 376.20 L 514.90 378.00 L 515.40 379.10 L 515.60 394.00 L 515.40 395.40 L 514.10 397.60 L 511.90 398.80 L 510.50 399.00 Z" fill="#21b9ff" fill-rule="nonzero" group-id="2,23,24,27" node-id="408" stroke="none" target-height="23.5" target-width="232.39996" target-x="283.2" target-y="375.5"></path><path d="M 727.10 478.40 L 288.10 478.40 L 286.70 478.20 L 284.60 477.00 L 283.30 474.80 L 283.10 473.40 L 283.30 458.50 L 284.60 456.40 L 286.70 455.10 L 727.10 454.90 L 728.50 455.10 L 730.60 456.40 L 731.90 458.50 L 732.10 459.90 L 731.90 474.80 L 731.40 475.90 L 729.60 477.70 L 727.10 478.40 Z" fill="#21b9ff" fill-rule="nonzero" group-id="2,23,24,27" node-id="410" stroke="none" target-height="23.5" target-width="448.99997" target-x="283.1" target-y="454.9"></path><path d="M 727.10 438.70 L 288.10 438.70 L 286.70 438.50 L 284.60 437.30 L 283.30 435.10 L 283.10 433.70 L 283.30 418.80 L 284.60 416.70 L 286.70 415.40 L 727.10 415.20 L 728.50 415.40 L 730.60 416.70 L 731.90 418.80 L 732.10 420.20 L 731.90 435.10 L 731.40 436.20 L 729.60 438.00 L 727.10 438.70 Z" fill="#21b9ff" fill-rule="nonzero" group-id="2,23,24,27" node-id="412" stroke="none" target-height="23.5" target-width="448.99997" target-x="283.1" target-y="415.2"></path><path d="M 727.10 518.10 L 288.10 518.10 L 286.70 517.90 L 284.60 516.70 L 283.30 514.50 L 283.10 513.10 L 283.30 498.20 L 284.60 496.10 L 286.70 494.80 L 727.10 494.60 L 728.50 494.80 L 730.60 496.10 L 731.90 498.20 L 732.10 499.60 L 731.90 514.50 L 731.40 515.60 L 729.60 517.40 L 727.10 518.10 Z" fill="#21b9ff" fill-rule="nonzero" group-id="2,23,24,27" node-id="414" stroke="none" target-height="23.49997" target-width="448.99997" target-x="283.1" target-y="494.6"></path><path d="M 792.60 413.30 L 718.00 413.30 L 713.50 412.50 L 711.50 411.60 L 708.20 408.80 L 706.00 405.00 L 705.20 400.50 L 705.20 325.80 L 706.00 321.30 L 708.20 317.50 L 711.50 314.70 L 715.70 313.20 L 718.00 313.00 L 792.70 313.00 L 797.20 313.80 L 799.20 314.70 L 802.50 317.50 L 804.70 321.30 L 805.50 325.80 L 805.50 400.50 L 805.30 402.80 L 803.70 406.90 L 800.90 410.30 L 797.10 412.50 L 792.60 413.30 Z" fill="#57bc9a" fill-rule="nonzero" group-id="2,23,24" node-id="417" stroke="none" target-height="100.29999" target-width="100.29999" target-x="705.2" target-y="313"></path><path d="M 730.00 358.90 L 744.10 373.10 L 744.60 373.40 L 745.80 373.40 L 780.30 338.70 L 781.40 338.30 L 782.50 338.70 L 787.40 343.60 L 787.90 344.70 L 787.40 345.80 L 745.60 387.90 L 744.40 387.90 L 743.90 387.60 L 722.80 366.20 L 722.70 365.10 L 723.00 364.60 L 727.70 359.00 L 728.90 358.40 L 730.00 358.90 Z" fill="#ffffff" fill-rule="nonzero" group-id="2,23,24" node-id="419" stroke="none" target-height="49.600006" target-width="65.20001" target-x="722.7" target-y="338.3"></path><path d="M 766.00 759.50 L 249.30 759.50 L 246.70 759.30 L 244.30 758.60 L 242.10 757.50 L 240.00 756.10 L 238.30 754.40 L 236.90 752.40 L 235.80 750.20 L 235.10 747.70 L 234.90 745.10 L 234.90 585.80 L 235.10 583.20 L 235.80 580.80 L 236.90 578.60 L 238.30 576.50 L 240.00 574.80 L 242.00 573.40 L 244.20 572.30 L 246.70 571.60 L 249.30 571.40 L 766.00 571.40 L 768.60 571.60 L 771.00 572.30 L 773.20 573.40 L 775.30 574.80 L 777.00 576.50 L 778.40 578.50 L 779.50 580.70 L 780.20 583.20 L 780.40 585.80 L 780.40 745.10 L 780.20 747.70 L 779.50 750.20 L 778.40 752.40 L 777.00 754.40 L 775.30 756.10 L 773.20 757.50 L 771.00 758.60 L 768.60 759.30 L 766.00 759.50 Z" fill="#ffffff" fill-rule="nonzero" group-id="2,23,25" node-id="424" stroke="none" target-height="188.09998" target-width="545.5" target-x="234.9" target-y="571.4"></path><path d="M 510.50 620.00 L 288.20 620.00 L 286.80 619.80 L 284.70 618.60 L 283.40 616.40 L 283.20 615.00 L 283.40 600.10 L 283.90 599.00 L 285.70 597.20 L 288.20 596.50 L 510.60 596.50 L 513.10 597.20 L 514.90 599.00 L 515.40 600.10 L 515.60 615.00 L 515.40 616.40 L 514.10 618.60 L 511.90 619.80 L 510.50 620.00 Z" fill="url(#SVGID_7_)" fill-rule="nonzero" group-id="2,23,25,28" node-id="428" stroke="none" target-height="23.5" target-width="232.39996" target-x="283.2" target-y="596.5"></path><path d="M 727.10 699.40 L 288.10 699.40 L 286.70 699.20 L 284.60 698.00 L 283.30 695.80 L 283.10 694.40 L 283.30 679.50 L 284.60 677.40 L 286.70 676.10 L 727.10 675.90 L 728.50 676.10 L 730.60 677.40 L 731.90 679.50 L 732.10 680.90 L 731.90 695.80 L 731.40 696.90 L 729.60 698.70 L 727.10 699.40 Z" fill="url(#SVGID_8_)" fill-rule="nonzero" group-id="2,23,25,28" node-id="430" stroke="none" target-height="23.5" target-width="448.99997" target-x="283.1" target-y="675.9"></path><path d="M 727.10 659.70 L 288.10 659.70 L 286.70 659.50 L 284.60 658.30 L 283.30 656.10 L 283.10 654.70 L 283.30 639.80 L 284.60 637.70 L 286.70 636.40 L 727.10 636.20 L 728.50 636.40 L 730.60 637.70 L 731.90 639.80 L 732.10 641.20 L 731.90 656.10 L 731.40 657.20 L 729.60 659.00 L 727.10 659.70 Z" fill="url(#SVGID_9_)" fill-rule="nonzero" group-id="2,23,25,28" node-id="432" stroke="none" target-height="23.5" target-width="448.99997" target-x="283.1" target-y="636.2"></path><path d="M 727.10 739.10 L 288.10 739.10 L 286.70 738.90 L 284.60 737.60 L 283.30 735.50 L 283.10 734.10 L 283.30 719.20 L 284.60 717.10 L 286.70 715.80 L 727.10 715.60 L 728.50 715.80 L 730.60 717.10 L 731.90 719.20 L 732.10 720.60 L 731.90 735.50 L 731.40 736.60 L 729.60 738.40 L 727.10 739.10 Z" fill="url(#SVGID_10_)" fill-rule="nonzero" group-id="2,23,25,28" node-id="434" stroke="none" target-height="23.5" target-width="448.99997" target-x="283.1" target-y="715.6"></path><path d="M 766.00 980.50 L 249.30 980.50 L 246.70 980.30 L 244.30 979.60 L 242.10 978.50 L 240.00 977.10 L 238.30 975.40 L 236.90 973.40 L 235.80 971.20 L 235.10 968.70 L 234.90 966.10 L 234.90 806.80 L 235.10 804.20 L 235.80 801.80 L 236.90 799.60 L 238.30 797.50 L 240.00 795.80 L 242.00 794.40 L 244.20 793.30 L 246.70 792.60 L 249.30 792.40 L 766.00 792.40 L 768.60 792.60 L 771.00 793.30 L 773.20 794.40 L 775.30 795.80 L 777.00 797.50 L 778.40 799.50 L 779.50 801.70 L 780.20 804.20 L 780.40 806.80 L 780.40 966.10 L 780.20 968.70 L 779.50 971.20 L 778.40 973.40 L 777.00 975.40 L 773.20 978.50 L 771.00 979.60 L 768.60 980.30 L 766.00 980.50 Z" fill="#ffffff" fill-rule="nonzero" group-id="2,23,26" node-id="440" stroke="none" target-height="188.09998" target-width="545.5" target-x="234.9" target-y="792.4"></path><path d="M 510.50 841.00 L 288.20 841.00 L 286.80 840.80 L 284.70 839.60 L 283.40 837.40 L 283.20 836.00 L 283.40 821.10 L 283.90 820.00 L 285.70 818.20 L 288.20 817.50 L 510.60 817.50 L 513.10 818.20 L 514.90 820.00 L 515.40 821.10 L 515.60 836.00 L 515.40 837.40 L 514.10 839.60 L 511.90 840.80 L 510.50 841.00 Z" fill="url(#SVGID_11_)" fill-rule="nonzero" group-id="2,23,26,29" node-id="444" stroke="none" target-height="23.5" target-width="232.39996" target-x="283.2" target-y="817.5"></path><path d="M 727.10 920.40 L 288.10 920.40 L 286.70 920.20 L 284.60 919.00 L 283.30 916.80 L 283.10 915.40 L 283.30 900.50 L 284.60 898.40 L 286.70 897.10 L 727.10 896.90 L 728.50 897.10 L 730.60 898.40 L 731.90 900.50 L 732.10 901.90 L 731.90 916.80 L 731.40 917.90 L 729.60 919.70 L 727.10 920.40 Z" fill="url(#SVGID_12_)" fill-rule="nonzero" group-id="2,23,26,29" node-id="446" stroke="none" target-height="23.5" target-width="448.99997" target-x="283.1" target-y="896.9"></path><path d="M 727.10 880.70 L 288.10 880.70 L 286.70 880.50 L 284.60 879.30 L 283.30 877.10 L 283.10 875.70 L 283.30 860.80 L 284.60 858.70 L 286.70 857.40 L 727.10 857.20 L 728.50 857.40 L 730.60 858.70 L 731.90 860.80 L 732.10 862.20 L 731.90 877.10 L 731.40 878.20 L 729.60 880.00 L 727.10 880.70 Z" fill="url(#SVGID_13_)" fill-rule="nonzero" group-id="2,23,26,29" node-id="448" stroke="none" target-height="23.5" target-width="448.99997" target-x="283.1" target-y="857.2"></path><path d="M 727.10 960.10 L 288.10 960.10 L 286.70 959.90 L 284.60 958.70 L 283.30 956.50 L 283.10 955.10 L 283.30 940.20 L 284.60 938.10 L 286.70 936.80 L 727.10 936.60 L 728.50 936.80 L 730.60 938.10 L 731.90 940.20 L 732.10 941.60 L 731.90 956.50 L 731.40 957.60 L 729.60 959.40 L 727.10 960.10 Z" fill="url(#SVGID_14_)" fill-rule="nonzero" group-id="2,23,26,29" node-id="450" stroke="none" target-height="23.5" target-width="448.99997" target-x="283.1" target-y="936.6"></path></g></g><path d="M 623.00 226.00 L 622.80 229.10 L 621.20 235.00 L 618.20 240.20 L 616.10 242.50 L 613.80 244.60 L 608.60 247.60 L 602.70 249.20 L 599.60 249.40 L 596.50 249.20 L 590.60 247.60 L 585.40 244.60 L 583.10 242.50 L 579.30 237.70 L 577.00 232.10 L 576.40 229.10 L 576.20 226.00 L 577.00 219.90 L 579.30 214.30 L 581.00 211.80 L 583.10 209.50 L 585.40 207.40 L 590.60 204.40 L 596.50 202.80 L 599.60 202.60 L 602.70 202.80 L 608.60 204.40 L 613.80 207.40 L 616.10 209.50 L 618.20 211.80 L 621.20 217.00 L 622.20 219.90 L 622.80 222.90 L 623.00 226.00 Z" fill="url(#SVGID_15_)" fill-rule="nonzero" node-id="456" stroke="none" target-height="46.799988" target-width="46.799988" target-x="576.2" target-y="202.6"></path><path d="M 931.30 233.40 L 931.10 236.30 L 929.60 241.70 L 928.40 244.10 L 926.30 247.10 L 923.80 249.60 L 920.80 251.70 L 918.40 252.90 L 913.00 254.40 L 910.10 254.60 L 907.20 254.40 L 901.80 252.90 L 899.40 251.70 L 896.40 249.60 L 893.90 247.10 L 891.80 244.10 L 889.70 239.10 L 889.10 236.30 L 888.90 233.40 L 889.70 227.70 L 891.80 222.70 L 893.90 219.70 L 896.40 217.20 L 899.40 215.10 L 901.80 213.90 L 907.20 212.40 L 910.10 212.20 L 913.00 212.40 L 918.40 213.90 L 920.80 215.10 L 923.80 217.20 L 926.30 219.70 L 928.40 222.70 L 929.60 225.10 L 931.10 230.50 L 931.30 233.40 Z" fill="url(#SVGID_16_)" fill-rule="nonzero" node-id="458" stroke="none" target-height="42.40001" target-width="42.399963" target-x="888.9" target-y="212.2"></path><path d="M 1024.00 488.70 L 1023.20 492.90 L 1021.10 496.50 L 1018.00 499.10 L 1016.10 500.00 L 1011.90 500.80 L 1007.70 500.00 L 1004.10 497.90 L 1001.50 494.80 L 1000.00 490.90 L 999.80 488.70 L 1000.00 486.50 L 1000.60 484.50 L 1002.70 480.90 L 1005.80 478.30 L 1007.70 477.40 L 1011.90 476.60 L 1016.10 477.40 L 1018.00 478.30 L 1021.10 480.90 L 1023.20 484.50 L 1024.00 488.70 Z" fill="url(#SVGID_17_)" fill-rule="nonzero" node-id="460" stroke="none" target-height="24.199982" target-width="24.200012" target-x="999.8" target-y="476.6"></path><path d="M 163.20 180.90 L 163.00 183.50 L 161.70 188.30 L 159.20 192.60 L 157.50 194.50 L 155.60 196.20 L 151.30 198.70 L 146.50 200.00 L 143.90 200.20 L 141.30 200.00 L 136.50 198.70 L 132.20 196.20 L 130.30 194.50 L 127.20 190.50 L 125.30 185.90 L 124.80 183.50 L 124.60 180.90 L 125.30 175.90 L 127.20 171.30 L 130.30 167.30 L 132.20 165.60 L 136.50 163.10 L 141.30 161.80 L 143.90 161.60 L 146.50 161.80 L 151.30 163.10 L 155.60 165.60 L 157.50 167.30 L 159.20 169.20 L 161.70 173.50 L 163.00 178.30 L 163.20 180.90 Z" fill="url(#SVGID_18_)" fill-rule="nonzero" node-id="462" stroke="none" target-height="38.59999" target-width="38.6" target-x="124.6" target-y="161.6"></path><path d="M 48.40 451.50 L 48.20 454.90 L 47.50 458.20 L 46.40 461.30 L 45.00 464.20 L 43.20 466.80 L 41.00 469.20 L 38.60 471.40 L 36.00 473.20 L 33.10 474.60 L 30.00 475.70 L 26.70 476.40 L 23.30 476.60 L 19.90 476.40 L 16.60 475.70 L 13.50 474.60 L 10.60 473.20 L 8.00 471.40 L 5.60 469.20 L 3.40 466.80 L 1.60 464.20 L 0.20 461.30 L -0.90 458.20 L -1.60 454.90 L -1.80 451.50 L -1.60 448.10 L -0.90 444.80 L 0.20 441.70 L 1.60 438.80 L 3.40 436.20 L 5.60 433.80 L 8.00 431.60 L 10.60 429.80 L 13.50 428.40 L 16.60 427.30 L 19.90 426.60 L 23.30 426.40 L 26.70 426.60 L 30.00 427.30 L 33.10 428.40 L 36.00 429.80 L 38.60 431.60 L 41.00 433.80 L 43.20 436.20 L 45.00 438.80 L 46.40 441.70 L 47.50 444.80 L 48.20 448.10 L 48.40 451.50 Z" fill="url(#SVGID_19_)" fill-rule="nonzero" node-id="464" stroke="none" target-height="50.200012" target-width="50.2" target-x="-1.8" target-y="426.4"></path><path d="M 72.40 426.30 L 72.10 428.70 L 71.20 430.70 L 69.80 432.50 L 68.00 433.90 L 66.00 434.80 L 63.60 435.10 L 61.20 434.80 L 59.20 433.90 L 57.40 432.50 L 56.00 430.70 L 55.10 428.70 L 54.80 426.30 L 55.10 423.90 L 56.00 421.90 L 57.40 420.10 L 59.20 418.70 L 61.20 417.80 L 63.60 417.50 L 66.00 417.80 L 68.00 418.70 L 69.80 420.10 L 71.20 421.90 L 72.10 423.90 L 72.40 426.30 Z" fill="url(#SVGID_20_)" fill-rule="nonzero" node-id="466" stroke="none" target-height="17.600006" target-width="17.600002" target-x="54.8" target-y="417.5"></path><path d="M 224.10 332.50 L 223.30 337.00 L 221.10 340.80 L 217.70 343.60 L 215.70 344.60 L 211.20 345.40 L 206.70 344.60 L 202.90 342.40 L 200.10 339.00 L 198.50 334.90 L 198.30 332.50 L 198.50 330.10 L 199.10 328.00 L 201.30 324.20 L 204.70 321.40 L 206.70 320.40 L 211.20 319.60 L 215.70 320.40 L 217.70 321.40 L 221.10 324.20 L 223.30 328.00 L 224.10 332.50 Z" fill="url(#SVGID_21_)" fill-rule="nonzero" node-id="468" stroke="none" target-height="25.799988" target-width="25.800003" target-x="198.3" target-y="319.6"></path><path d="M 458.20 317.90 L 457.40 322.40 L 455.20 326.20 L 451.80 329.00 L 449.80 330.00 L 445.30 330.80 L 440.80 330.00 L 437.00 327.80 L 434.20 324.40 L 433.20 322.40 L 432.60 320.30 L 432.40 317.90 L 433.20 313.40 L 435.40 309.60 L 438.80 306.80 L 440.80 305.80 L 442.90 305.20 L 445.30 305.00 L 449.80 305.80 L 453.60 308.00 L 456.40 311.40 L 457.40 313.40 L 458.20 317.90 Z" fill="url(#SVGID_22_)" fill-rule="nonzero" node-id="470" stroke="none" target-height="25.799988" target-width="25.800018" target-x="432.4" target-y="305"></path><path d="M 644.00 266.60 L 643.30 270.30 L 641.20 273.50 L 638.00 275.60 L 634.30 276.30 L 630.60 275.60 L 627.40 273.50 L 625.30 270.30 L 624.60 266.60 L 625.30 262.90 L 627.40 259.70 L 630.60 257.60 L 634.30 256.90 L 638.00 257.60 L 641.20 259.70 L 643.30 262.90 L 644.00 266.60 Z" fill="url(#SVGID_23_)" fill-rule="nonzero" node-id="472" stroke="none" target-height="19.399994" target-width="19.400024" target-x="624.6" target-y="256.9"></path></svg>