<?xml version="1.0" standalone="no"?><!DOCTYPE svg PUBLIC "-//W3C//DTD SVG 1.1//EN" "http://www.w3.org/Graphics/SVG/1.1/DTD/svg11.dtd"><svg height="1077" node-id="1" sillyvg="true" template-height="1077" template-width="1539" version="1.1" viewBox="0 0 1539 1077" width="1539" xmlns="http://www.w3.org/2000/svg" xmlns:xlink="http://www.w3.org/1999/xlink"><defs node-id="31"><clipPath id="clip-path" node-id="5"><path d="M 30.60 260.60 L 1569.40 260.60 L 1569.40 1339.50 L 30.60 1339.50 Z" fill="#000000" fill-rule="nonzero" id="SVGID" node-id="6" stroke="none" target-height="1078.9" target-width="1538.8" target-x="30.6" target-y="260.6"></path></clipPath></defs><g node-id="145"><g clip-path="url(#clip-path)" group-id="1" node-id="39"><path d="M 1496.00 231.20 L 673.20 500.20 L 670.40 500.90 L 666.70 501.20 L 662.00 501.10 L 599.50 491.50 L 475.90 451.00 L 473.20 449.90 L 471.90 448.80 L 471.40 447.70 L 471.50 446.60 L 472.50 445.20 L 474.80 443.30 L 722.70 271.00 L 730.60 274.00 L 738.40 276.30 L 746.20 277.90 L 754.00 278.80 L 761.80 279.00 L 769.70 278.50 L 777.60 277.40 L 785.70 275.50 L 795.10 275.50 L 803.30 275.00 L 810.50 274.00 L 816.80 272.60 L 823.20 270.60 L 828.70 268.30 L 833.30 265.80 L 837.20 263.00 L 840.80 259.70 L 843.70 256.20 L 846.00 252.60 L 847.70 248.70 L 848.80 244.70 L 849.40 240.60 L 849.50 236.30 L 849.10 231.90 L 848.10 227.70 L 846.70 223.40 L 844.70 219.00 L 842.30 214.70 L 839.40 210.60 L 836.10 206.60 L 832.40 202.80 L 828.10 199.00 L 823.60 195.60 L 818.60 192.50 L 813.20 189.60 L 807.40 187.00 L 801.40 184.90 L 795.00 183.10 L 788.20 181.80 L 780.90 180.80 L 773.70 180.40 L 766.20 180.50 L 758.10 181.20 L 749.70 182.40 L 741.30 183.10 L 733.70 184.30 L 726.90 186.20 L 720.70 188.50 L 715.10 191.40 L 710.00 194.80 L 705.40 198.70 L 701.30 203.20 L 697.60 208.30 L 694.40 214.00 L 691.60 220.40 L 689.20 227.60 L 687.40 235.70 L 408.00 420.90 L 405.50 421.90 L 400.00 422.90 L 394.40 422.20 L 336.40 406.80 L 313.10 403.00 L 280.30 389.50 L 247.30 376.50 L 214.10 364.10 L 180.70 352.30 L 147.00 340.90 L 113.30 330.20 L 79.30 319.90 L 38.90 308.30 L 27.90 303.90 L 18.50 298.40 L 14.40 295.40 L 10.90 292.30 L 7.90 289.20 L 5.20 285.70 L 3.10 282.20 L 1.50 278.70 L 0.50 275.20 L 0.10 271.50 L 0.20 267.90 L 0.90 264.30 L 2.30 260.70 L 4.20 257.30 L 6.80 253.90 L 10.10 250.50 L 14.40 247.10 L 18.90 244.20 L 24.20 241.30 L 30.60 238.50 L 38.20 235.70 L 126.30 207.00 L 214.20 177.80 L 302.10 148.10 L 389.70 118.00 L 398.90 118.30 L 407.80 117.90 L 416.40 116.90 L 424.80 115.30 L 432.90 113.00 L 440.80 110.20 L 448.50 106.80 L 456.10 102.70 L 463.50 97.90 L 470.70 92.40 L 734.10 5.50 L 742.40 3.10 L 750.70 1.40 L 758.80 0.40 L 766.90 0.00 L 775.00 0.30 L 783.00 1.30 L 791.10 2.90 L 799.20 5.10 Z" fill="#918191" fill-rule="nonzero" group-id="1,19" node-id="41" stroke="none" target-height="501.2" target-width="1495.9" target-x="0.1" target-y="0"></path></g></g><g node-id="146"><path d="M 470.60 92.40 L 463.40 97.90 L 456.00 102.60 L 448.40 106.70 L 440.70 110.20 L 432.80 113.00 L 424.70 115.30 L 416.40 116.90 L 407.80 117.90 L 398.90 118.30 L 389.60 118.00 L 399.10 112.80 L 408.70 108.30 L 418.60 104.20 L 428.70 100.70 L 439.00 97.80 L 449.40 95.40 L 459.90 93.60 L 470.60 92.40 Z" fill="#cbc5cb" fill-rule="nonzero" group-id="2" node-id="47" stroke="none" target-height="25.900002" target-width="81" target-x="389.6" target-y="92.4"></path></g><g node-id="147"><path d="M 749.70 182.40 L 756.70 191.80 L 763.00 201.40 L 768.50 211.20 L 773.20 221.20 L 777.10 231.40 L 780.40 242.00 L 782.90 252.80 L 784.60 264.00 L 785.70 275.50 L 777.60 277.40 L 769.70 278.50 L 761.80 279.00 L 754.00 278.80 L 746.20 277.90 L 738.40 276.30 L 730.60 274.00 L 722.70 271.00 L 722.40 264.00 L 721.50 258.10 L 720.10 253.10 L 718.10 248.90 L 715.60 245.30 L 712.60 242.40 L 709.00 239.90 L 704.80 238.00 L 699.90 236.60 L 694.20 235.80 L 687.40 235.70 L 689.20 227.60 L 691.60 220.40 L 694.40 214.00 L 697.60 208.30 L 701.30 203.20 L 705.50 198.70 L 710.00 194.80 L 715.10 191.40 L 720.70 188.50 L 726.90 186.10 L 733.70 184.30 L 741.30 183.10 L 749.70 182.40 Z" fill="#685e67" fill-rule="nonzero" group-id="3" node-id="52" stroke="none" target-height="96.600006" target-width="98.29999" target-x="687.4" target-y="182.4"></path></g><g node-id="148"><path d="M 749.70 182.40 L 758.10 181.20 L 766.20 180.50 L 773.70 180.40 L 780.90 180.80 L 788.20 181.80 L 795.00 183.10 L 801.40 184.90 L 807.40 187.00 L 813.20 189.60 L 818.60 192.50 L 823.60 195.60 L 828.10 199.00 L 832.40 202.80 L 836.10 206.60 L 839.40 210.60 L 842.30 214.70 L 844.70 219.00 L 846.70 223.40 L 848.10 227.70 L 849.10 231.90 L 849.50 236.30 L 849.40 240.60 L 848.80 244.70 L 847.70 248.70 L 846.00 252.60 L 843.70 256.20 L 840.80 259.70 L 837.20 263.00 L 833.30 265.80 L 828.70 268.30 L 823.20 270.60 L 816.80 272.60 L 810.50 274.00 L 803.30 275.00 L 795.10 275.50 L 785.70 275.50 L 784.60 264.00 L 782.90 252.80 L 780.40 242.00 L 777.10 231.50 L 773.20 221.20 L 768.50 211.20 L 763.00 201.40 L 756.70 191.80 L 749.70 182.40 Z" fill="#554e54" fill-rule="nonzero" group-id="4" node-id="57" stroke="none" target-height="95.100006" target-width="99.79999" target-x="749.7" target-y="180.4"></path></g><g node-id="149"><g clip-path="url(#clip-path)" group-id="5" id="sillyvg_g_1" node-id="60"><path d="M 687.40 235.70 L 694.20 235.80 L 699.90 236.60 L 704.80 238.00 L 709.00 239.90 L 712.60 242.40 L 715.60 245.30 L 718.10 248.90 L 720.10 253.10 L 721.50 258.10 L 722.40 264.00 L 722.70 271.00 L 474.80 443.20 L 472.50 445.10 L 471.50 446.50 L 471.40 447.70 L 471.80 448.70 L 473.20 449.80 L 475.90 451.00 L 599.50 491.50 L 759.00 550.20 L 764.10 551.30 L 767.10 551.40 L 773.10 550.50 L 776.30 549.50 L 1221.50 402.20 L 1226.70 424.40 L 1231.50 446.70 L 1235.90 469.00 L 1239.90 491.40 L 1243.40 513.90 L 1246.50 536.50 L 1249.10 559.10 L 1251.30 581.80 L 1253.00 604.50 L 1254.40 627.20 L 1255.40 634.30 L 1255.90 640.50 L 1255.80 645.90 L 1255.20 650.70 L 1254.20 655.60 L 1252.70 659.90 L 1250.90 663.80 L 1248.70 667.20 L 1246.10 670.40 L 1243.20 673.30 L 1239.90 675.90 L 1236.40 678.30 L 1231.40 681.00 L 1225.90 683.50 L 1220.00 685.60 L 1210.90 688.30 L 1181.60 695.50 L 1168.90 688.80 L 1167.20 687.10 L 1165.60 684.90 L 1163.40 679.60 L 1162.70 676.40 L 1140.20 520.30 L 1139.80 518.70 L 1137.90 515.90 L 1134.90 514.20 L 1131.50 513.80 L 1129.80 514.20 L 785.10 626.20 L 780.80 627.20 L 776.40 627.70 L 772.00 627.50 L 767.60 626.70 L 748.20 621.70 L 728.70 616.20 L 709.30 610.30 L 680.40 601.00 L 651.50 591.10 L 565.30 560.70 L 536.60 550.90 L 498.30 538.70 L 479.10 533.00 L 459.90 527.80 L 440.60 523.10 L 402.50 514.80 L 381.80 509.40 L 371.30 506.10 L 361.10 502.40 L 354.50 499.70 L 342.30 493.50 L 336.60 490.00 L 331.50 486.20 L 327.00 482.20 L 323.80 479.00 L 321.10 475.60 L 318.80 472.00 L 316.90 468.30 L 315.50 464.40 L 314.50 460.30 L 314.00 455.90 L 314.00 451.30 L 314.50 446.80 L 315.60 441.90 L 317.40 436.60 L 319.90 430.90 L 322.70 425.60 L 326.30 419.80 L 330.90 413.60 L 336.40 406.70 L 394.40 422.20 L 397.20 422.80 L 400.00 422.90 L 405.50 422.00 L 410.60 419.50 Z" fill="#554e54" fill-rule="nonzero" group-id="5,20" node-id="64" stroke="none" target-height="459.8" target-width="941.9" target-x="314" target-y="235.7"></path><path d="M 1496.00 231.20 L 1504.10 234.20 L 1511.00 237.20 L 1516.90 240.30 L 1521.80 243.30 L 1526.60 246.90 L 1530.40 250.50 L 1533.40 253.90 L 1535.60 257.40 L 1537.40 261.10 L 1538.50 264.90 L 1538.90 268.50 L 1538.70 272.20 L 1538.00 275.80 L 1536.60 279.40 L 1534.70 283.00 L 1532.20 286.70 L 1529.30 290.00 L 1525.80 293.20 L 1521.80 296.40 L 1517.00 299.60 L 1506.90 305.00 L 1494.50 309.90 L 1403.30 340.20 L 1312.30 370.90 L 1221.50 402.30 L 776.30 549.50 L 773.10 550.40 L 767.10 551.30 L 764.10 551.30 L 759.00 550.20 L 599.50 491.50 L 662.00 501.10 L 666.70 501.20 L 670.40 500.80 L 673.20 500.20 Z" fill="#7a6d79" fill-rule="nonzero" group-id="5,21" node-id="69" stroke="none" target-height="320.09998" target-width="939.4" target-x="599.5" target-y="231.2"></path></g></g><g node-id="150"><path d="M 313.10 403.00 L 336.40 406.70 L 330.80 413.60 L 326.30 419.80 L 322.70 425.60 L 319.90 430.90 L 317.40 436.60 L 315.60 441.90 L 314.50 446.80 L 314.00 451.30 L 314.00 456.00 L 314.50 460.30 L 315.40 464.40 L 316.90 468.30 L 318.80 472.00 L 321.10 475.60 L 323.80 479.00 L 326.90 482.30 L 331.40 486.20 L 336.50 490.00 L 342.20 493.50 L 348.20 496.70 L 361.10 502.50 L 371.30 506.20 L 381.80 509.40 L 402.40 514.80 L 440.60 523.10 L 459.90 527.80 L 479.10 533.00 L 498.30 538.70 L 536.60 550.90 L 565.30 560.70 L 651.60 591.10 L 680.50 601.00 L 709.40 610.30 L 728.80 616.20 L 748.20 621.60 L 767.70 626.70 L 772.10 627.50 L 776.50 627.60 L 780.90 627.20 L 785.20 626.20 L 1129.90 514.20 L 1131.60 513.80 L 1135.00 514.20 L 1138.00 515.90 L 1139.10 517.20 L 1139.90 518.60 L 1140.30 520.30 L 1163.50 679.60 L 1164.40 682.40 L 1165.70 684.90 L 1167.30 687.10 L 1169.00 688.80 L 1181.70 695.40 L 1163.70 707.50 L 1150.30 709.50 L 1137.10 712.10 L 1124.00 715.30 L 1111.10 719.00 L 1098.30 723.20 L 1085.70 728.00 L 1073.40 733.40 L 1061.30 739.20 L 1049.40 745.60 L 1037.70 752.50 L 920.70 793.00 L 912.60 792.70 L 904.90 793.10 L 897.50 794.20 L 890.30 796.00 L 883.40 798.40 L 876.80 801.60 L 870.30 805.40 L 863.90 810.10 L 857.70 815.50 L 713.70 866.50 L 705.40 868.00 L 697.60 870.10 L 690.30 872.80 L 683.40 876.00 L 677.00 879.70 L 671.00 884.00 L 665.30 888.80 L 660.00 894.30 L 655.10 900.30 L 650.50 907.10 L 646.20 914.50 L 596.70 920.50 L 507.40 901.80 L 469.90 654.20 L 476.40 646.00 L 481.70 638.20 L 485.90 630.70 L 489.30 623.60 L 491.70 616.70 L 493.30 610.00 L 494.20 603.50 L 494.40 597.20 L 493.90 591.00 L 492.60 584.80 L 490.70 578.70 L 488.00 572.60 L 484.50 566.50 L 480.10 560.30 L 474.80 554.00 L 468.50 547.70 L 463.80 544.30 L 458.40 542.10 L 455.60 541.50 L 438.90 540.90 L 426.90 541.30 L 416.50 542.30 L 407.40 543.90 L 399.50 546.00 L 392.80 548.50 L 387.00 551.40 L 382.10 554.60 L 377.90 558.10 L 374.50 562.10 L 371.60 566.30 L 369.40 571.00 L 367.70 576.20 L 366.70 582.00 L 366.30 588.30 L 366.70 595.40 L 367.80 603.30 L 369.90 612.10 L 373.10 621.90 L 377.40 632.90 L 383.10 645.10 L 390.40 658.70 L 357.40 843.20 L 346.80 839.20 L 336.90 834.70 L 327.50 829.60 L 318.80 823.90 L 310.60 817.70 L 303.00 810.90 L 295.90 803.50 L 289.20 795.50 L 283.10 786.90 L 280.40 781.70 L 278.80 776.10 L 278.40 770.30 L 279.40 733.40 L 281.00 696.50 L 283.20 659.60 L 285.80 622.80 L 289.10 586.00 L 292.80 549.30 L 297.10 512.60 L 301.90 476.00 L 307.30 439.40 L 313.10 402.90 Z" fill="#685e67" fill-rule="nonzero" group-id="6" node-id="75" stroke="none" target-height="517.6" target-width="903.2999" target-x="278.4" target-y="402.9"></path></g><g node-id="151"><path d="M 469.90 654.20 L 417.40 658.70 L 390.40 658.70 L 383.10 645.10 L 377.40 632.90 L 373.10 621.90 L 369.90 612.10 L 367.80 603.30 L 366.60 595.40 L 366.30 588.30 L 366.70 582.00 L 367.70 576.20 L 369.40 571.10 L 371.60 566.40 L 374.50 562.10 L 377.90 558.10 L 382.10 554.60 L 387.00 551.40 L 392.80 548.50 L 399.50 546.00 L 407.40 543.90 L 416.40 542.30 L 426.90 541.30 L 438.90 540.90 L 455.60 541.50 L 458.40 542.10 L 463.80 544.30 L 468.50 547.70 L 474.80 554.10 L 480.10 560.40 L 484.50 566.50 L 488.00 572.70 L 490.70 578.80 L 492.60 584.90 L 493.90 591.00 L 494.40 597.20 L 494.20 603.60 L 493.30 610.00 L 491.70 616.70 L 489.30 623.60 L 485.90 630.80 L 481.70 638.20 L 476.40 646.00 L 469.90 654.20 Z" fill="#fddd44" fill-rule="nonzero" group-id="7" node-id="80" stroke="none" target-height="117.79999" target-width="128.1" target-x="366.3" target-y="540.9"></path></g><g node-id="152"><g clip-path="url(#clip-path)" group-id="8" id="sillyvg_g_2" node-id="83"><path d="M 1506.80 644.00 L 1480.50 717.20 L 1477.80 722.70 L 1476.10 724.90 L 1474.10 726.80 L 1472.10 728.30 L 1469.90 729.30 L 1245.40 811.80 L 1240.70 799.70 L 1235.40 788.20 L 1229.60 777.30 L 1223.30 767.00 L 1216.50 757.10 L 1209.10 747.70 L 1201.20 738.80 L 1192.70 730.30 L 1183.60 722.30 L 1174.00 714.70 L 1163.70 707.50 L 1181.70 695.50 L 1210.90 688.40 L 1220.00 685.60 L 1225.90 683.50 L 1231.40 681.00 L 1236.40 678.30 L 1240.00 675.90 L 1243.20 673.30 L 1246.10 670.40 L 1248.70 667.20 L 1250.90 663.80 L 1252.70 659.90 L 1254.20 655.60 L 1255.20 650.70 L 1255.80 646.00 L 1255.90 640.50 L 1255.40 634.30 L 1254.40 627.30 L 1257.60 633.20 L 1261.20 638.50 L 1265.20 643.20 L 1269.60 647.40 L 1274.50 651.10 L 1279.70 654.30 L 1285.50 657.00 L 1290.80 658.10 L 1293.70 658.20 L 1299.50 657.10 L 1302.40 656.10 L 1352.40 633.20 L 1366.20 627.40 L 1380.40 622.00 L 1390.00 618.70 L 1409.00 613.40 L 1418.60 611.50 L 1427.90 610.20 L 1437.00 609.50 L 1443.90 609.40 L 1450.60 609.80 L 1457.10 610.60 L 1463.40 612.00 L 1469.60 613.80 L 1475.60 616.20 L 1481.40 619.20 L 1487.00 622.80 L 1491.20 626.10 L 1495.20 629.70 L 1499.20 633.90 L 1503.00 638.70 L 1506.80 644.00 Z" fill="#f1eff2" fill-rule="nonzero" group-id="8,22" node-id="87" stroke="none" target-height="202.39996" target-width="343.1001" target-x="1163.7" target-y="609.4"></path><path d="M 1506.80 644.00 L 1513.60 655.20 L 1519.40 666.40 L 1524.40 677.40 L 1528.50 688.40 L 1531.80 699.30 L 1534.20 710.30 L 1535.90 721.20 L 1536.80 732.20 L 1537.00 743.20 L 1536.30 754.30 L 1535.30 761.50 L 1533.60 768.10 L 1531.40 774.10 L 1528.50 779.60 L 1525.10 784.70 L 1521.00 789.40 L 1516.20 793.60 L 1510.70 797.50 L 1504.40 801.10 L 1497.20 804.20 L 1244.50 901.40 L 1244.00 856.80 L 1244.00 825.20 L 1245.40 811.70 L 1469.90 729.30 L 1472.10 728.20 L 1474.10 726.80 L 1476.10 724.90 L 1479.20 720.10 L 1480.50 717.20 Z" fill="#e1dde1" fill-rule="nonzero" group-id="8,23" node-id="92" stroke="none" target-height="257.40002" target-width="293" target-x="1244" target-y="644"></path></g></g><g node-id="153"><path d="M 417.40 658.70 L 412.50 679.00 L 411.20 688.70 L 411.30 693.90 L 422.60 768.30 L 427.20 802.70 L 431.10 837.20 L 434.60 871.80 L 437.50 906.40 L 439.90 941.10 L 441.70 975.80 L 443.10 1010.50 L 443.80 1045.20 L 370.60 1039.70 L 367.20 1039.00 L 364.10 1037.90 L 361.30 1036.10 L 358.80 1033.80 L 356.70 1031.20 L 354.90 1028.00 L 353.70 1024.70 L 352.90 1021.10 L 352.70 1017.20 L 357.40 843.20 L 390.40 658.70 Z" fill="#fcd430" fill-rule="nonzero" group-id="9" node-id="98" stroke="none" target-height="386.49994" target-width="91.099976" target-x="352.7" target-y="658.7"></path></g><g node-id="154"><path d="M 469.90 654.20 L 507.40 901.80 L 506.10 1019.00 L 505.30 1025.20 L 503.20 1030.30 L 501.70 1032.30 L 500.00 1033.90 L 495.20 1037.20 L 489.80 1040.00 L 483.90 1042.40 L 477.50 1044.20 L 470.30 1045.40 L 462.30 1046.00 L 453.50 1046.00 L 443.80 1045.20 L 443.10 1010.50 L 441.70 975.70 L 439.90 941.10 L 437.50 906.40 L 434.60 871.80 L 431.10 837.20 L 427.10 802.70 L 422.60 768.30 L 411.30 693.90 L 411.20 688.70 L 411.70 683.80 L 412.50 679.00 L 417.40 658.70 Z" fill="#e6b729" fill-rule="nonzero" group-id="10" node-id="103" stroke="none" target-height="391.8" target-width="96.19998" target-x="411.2" target-y="654.2"></path></g><g node-id="155"><path d="M 1163.70 707.50 L 1174.00 714.70 L 1183.70 722.30 L 1192.70 730.30 L 1201.20 738.80 L 1209.10 747.70 L 1216.50 757.10 L 1223.30 767.00 L 1229.70 777.30 L 1235.40 788.20 L 1240.70 799.70 L 1245.40 811.80 L 1244.00 825.20 L 1232.60 825.30 L 1221.70 826.10 L 1211.20 827.60 L 1201.00 829.80 L 1191.10 832.70 L 1181.60 836.40 L 1172.30 840.70 L 1163.20 845.80 L 1154.40 851.70 L 1145.80 858.30 L 1137.40 865.70 L 1128.40 843.20 L 1126.70 832.60 L 1124.50 822.90 L 1121.70 814.00 L 1118.50 805.80 L 1114.70 798.30 L 1110.50 791.50 L 1105.80 785.30 L 1100.60 779.60 L 1094.90 774.40 L 1088.70 769.80 L 1081.90 765.60 L 1074.50 761.90 L 1066.40 758.80 L 1057.60 756.10 L 1048.10 754.00 L 1037.70 752.50 L 1049.30 745.60 L 1061.20 739.20 L 1073.30 733.40 L 1085.70 728.10 L 1098.30 723.30 L 1111.00 719.00 L 1124.00 715.30 L 1137.00 712.10 L 1150.30 709.60 L 1163.70 707.50 Z" fill="#fc9743" fill-rule="nonzero" group-id="11" node-id="108" stroke="none" target-height="158.20001" target-width="207.70007" target-x="1037.7" target-y="707.5"></path></g><g node-id="156"><path d="M 1037.70 752.50 L 1048.10 754.00 L 1057.60 756.10 L 1066.40 758.80 L 1074.50 762.00 L 1081.90 765.60 L 1088.70 769.80 L 1094.90 774.40 L 1100.60 779.60 L 1105.80 785.30 L 1110.50 791.50 L 1114.70 798.40 L 1118.50 805.80 L 1121.70 814.00 L 1124.50 822.90 L 1126.70 832.60 L 1128.60 846.20 L 1128.30 848.80 L 1127.60 851.00 L 1126.40 853.00 L 1124.80 854.80 L 1122.60 856.30 L 1119.80 857.70 L 1014.40 898.00 L 934.70 927.80 L 876.30 948.90 L 834.90 963.20 L 806.90 972.10 L 802.40 973.20 L 798.20 973.50 L 794.20 973.30 L 790.40 972.40 L 786.60 970.90 L 782.90 968.70 L 779.30 965.70 L 775.60 961.90 L 772.00 957.10 L 713.70 866.50 L 857.70 815.50 L 865.30 815.10 L 872.80 814.10 L 880.10 812.60 L 887.40 810.50 L 894.50 808.00 L 901.40 805.00 L 908.10 801.50 L 914.50 797.50 L 920.70 793.00 Z" fill="#f1eff2" fill-rule="nonzero" group-id="12" node-id="113" stroke="none" target-height="221" target-width="414.89996" target-x="713.7" target-y="752.5"></path></g><g node-id="157"><path d="M 920.70 793.00 L 914.50 797.50 L 908.10 801.50 L 901.40 805.00 L 894.50 808.00 L 887.40 810.50 L 880.20 812.60 L 872.80 814.10 L 865.30 815.10 L 857.70 815.50 L 863.90 810.10 L 870.20 805.50 L 876.70 801.60 L 883.40 798.40 L 890.30 796.00 L 897.40 794.20 L 904.80 793.10 L 912.60 792.70 L 920.70 793.00 Z" fill="#a69ca7" fill-rule="nonzero" group-id="13" node-id="118" stroke="none" target-height="22.799988" target-width="63" target-x="857.7" target-y="792.7"></path></g><g node-id="158"><path d="M 1244.00 825.20 L 1244.00 856.70 L 1241.00 864.90 L 1237.50 872.60 L 1233.50 879.80 L 1228.80 886.60 L 1223.60 893.10 L 1217.70 899.10 L 1211.20 904.80 L 1204.00 910.10 L 1196.00 915.00 L 1187.20 919.60 L 1177.60 923.80 L 1167.10 927.70 L 1160.80 929.40 L 1155.50 930.20 L 1151.20 930.20 L 1147.60 929.70 L 1144.50 928.50 L 1142.00 926.90 L 1139.90 924.70 L 1138.20 922.00 L 1136.90 918.50 L 1136.00 914.00 L 1135.60 908.50 L 1137.40 865.70 L 1145.80 858.30 L 1154.40 851.70 L 1163.20 845.80 L 1172.30 840.70 L 1181.60 836.40 L 1191.10 832.70 L 1201.00 829.80 L 1211.20 827.60 L 1221.70 826.10 L 1232.60 825.30 L 1244.00 825.20 Z" fill="#fa7621" fill-rule="nonzero" group-id="14" node-id="123" stroke="none" target-height="105" target-width="108.400024" target-x="1135.6" target-y="825.2"></path></g><g node-id="159"><path d="M 1128.40 843.20 L 1137.40 865.70 L 1135.90 901.70 L 1117.90 946.70 L 765.70 1072.10 L 769.40 1060.30 L 772.40 1048.80 L 774.60 1037.50 L 776.20 1026.40 L 777.10 1015.40 L 777.30 1004.50 L 776.80 993.70 L 775.70 983.00 L 773.90 972.40 L 771.50 961.80 L 768.40 951.30 L 772.00 957.10 L 775.60 961.90 L 779.30 965.70 L 782.90 968.70 L 786.60 970.90 L 790.30 972.40 L 794.20 973.30 L 798.20 973.50 L 802.40 973.20 L 806.90 972.10 L 834.90 963.20 L 876.30 948.90 L 934.70 927.80 L 1014.30 898.00 L 1119.80 857.70 L 1122.60 856.30 L 1124.80 854.80 L 1126.40 853.00 L 1127.60 851.00 L 1128.30 848.80 L 1128.60 846.20 L 1128.40 843.30 Z" fill="#e1dde1" fill-rule="nonzero" group-id="15" node-id="128" stroke="none" target-height="228.89996" target-width="371.7" target-x="765.7" target-y="843.2"></path></g><g node-id="160"><path d="M 1244.00 856.80 L 1244.50 901.40 L 1258.10 905.30 L 1270.80 909.60 L 1282.60 914.30 L 1293.70 919.40 L 1304.00 924.90 L 1313.60 930.70 L 1322.50 936.80 L 1330.80 943.40 L 1338.50 950.30 L 1345.60 957.50 L 1352.20 965.10 L 1353.80 967.50 L 1355.00 970.00 L 1355.80 972.70 L 1356.20 975.50 L 1356.20 978.30 L 1355.70 981.10 L 1354.80 983.80 L 1353.60 986.20 L 1351.90 988.40 L 1349.90 990.30 L 1347.70 991.90 L 1345.10 993.10 L 1240.60 1031.90 L 1238.20 1032.60 L 1233.40 1032.90 L 1228.80 1031.80 L 1226.60 1030.80 L 1224.50 1029.50 L 1221.00 1026.10 L 1218.60 1021.90 L 1214.70 1008.80 L 1211.10 999.30 L 1207.10 990.70 L 1202.70 983.10 L 1198.00 976.30 L 1193.00 970.30 L 1187.60 965.00 L 1181.80 960.40 L 1175.60 956.50 L 1169.00 953.10 L 1162.00 950.40 L 1154.40 948.30 L 1146.30 946.90 L 1137.60 946.10 L 1128.10 946.10 L 1118.00 946.80 L 1136.00 901.80 L 1135.60 908.60 L 1136.00 914.10 L 1136.80 918.50 L 1138.20 922.00 L 1139.90 924.80 L 1142.00 927.00 L 1144.50 928.60 L 1147.60 929.70 L 1151.20 930.30 L 1155.50 930.30 L 1160.80 929.50 L 1167.10 927.70 L 1177.60 923.90 L 1187.20 919.70 L 1196.00 915.10 L 1204.00 910.10 L 1211.20 904.80 L 1217.70 899.10 L 1223.60 893.10 L 1228.80 886.70 L 1233.50 879.80 L 1237.50 872.60 L 1241.00 865.00 L 1244.00 856.80 Z" fill="#fc9743" fill-rule="nonzero" group-id="16" node-id="133" stroke="none" target-height="176.10004" target-width="238.19995" target-x="1118" target-y="856.8"></path></g><g node-id="161"><path d="M 713.70 866.50 L 768.40 951.20 L 771.50 961.80 L 773.90 972.40 L 775.70 983.00 L 776.80 993.70 L 777.30 1004.50 L 777.10 1015.30 L 776.20 1026.30 L 774.60 1037.50 L 772.40 1048.80 L 769.40 1060.30 L 765.70 1072.00 L 758.70 1074.20 L 751.60 1075.80 L 744.40 1076.90 L 737.20 1077.40 L 729.90 1077.20 L 722.70 1076.50 L 720.20 1069.80 L 718.20 1062.90 L 716.70 1055.90 L 715.00 1041.70 L 714.30 1023.70 L 714.00 991.80 L 712.80 978.20 L 711.80 971.80 L 710.30 965.40 L 708.30 959.30 L 705.80 953.40 L 703.50 949.20 L 700.90 945.10 L 697.70 941.10 L 694.10 937.30 L 690.30 933.80 L 685.80 930.50 L 680.70 927.30 L 674.90 924.10 L 669.00 921.50 L 662.40 919.00 L 654.80 916.70 L 646.20 914.50 L 650.40 907.10 L 655.00 900.40 L 660.00 894.30 L 665.30 888.90 L 670.90 884.00 L 676.90 879.70 L 683.30 876.00 L 690.20 872.80 L 697.50 870.10 L 705.30 868.00 L 713.70 866.50 Z" fill="#a69ca7" fill-rule="nonzero" group-id="17" node-id="138" stroke="none" target-height="210.90002" target-width="131.09998" target-x="646.2" target-y="866.5"></path></g><path d="M 646.20 914.50 L 654.80 916.70 L 662.40 919.00 L 669.00 921.50 L 674.90 924.10 L 680.70 927.30 L 685.80 930.50 L 690.30 933.90 L 694.10 937.30 L 697.70 941.10 L 700.80 945.10 L 703.50 949.20 L 705.80 953.40 L 708.30 959.30 L 710.30 965.40 L 711.80 971.80 L 712.80 978.30 L 714.00 991.90 L 714.30 1023.70 L 715.00 1041.80 L 716.70 1056.00 L 718.20 1062.90 L 720.10 1069.80 L 722.70 1076.50 L 716.20 1073.30 L 710.20 1069.90 L 704.80 1066.40 L 695.00 1058.50 L 690.60 1054.20 L 682.90 1045.10 L 678.30 1038.60 L 674.20 1031.90 L 670.40 1024.80 L 663.90 1010.30 L 657.00 991.20 L 645.40 956.20 L 641.10 944.70 L 636.30 933.40 L 635.00 931.40 L 633.30 929.70 L 631.30 928.30 L 628.90 927.50 L 626.40 927.10 L 618.90 927.40 L 614.20 927.10 L 609.50 926.30 L 605.00 924.90 L 600.80 922.90 L 596.70 920.50 Z" fill="#b6adb6" fill-rule="nonzero" group-id="18" node-id="143" stroke="none" target-height="162" target-width="126" target-x="596.7" target-y="914.5"></path></svg>